solid stromek
facet normal -0.8660254037844818 0.4999999999999253 0.0
  outer loop
    vertex -421.7998532620907 492.98645348617737 15.999999999999998
    vertex -430.29985326208947 478.26402162184115 0.0
    vertex -430.29985326208947 478.26402162184115 15.999999999999998
  endloop
endfacet
facet normal -0.8660254037844818 0.4999999999999253 0.0
  outer loop
    vertex -430.29985326208947 478.26402162184115 0.0
    vertex -421.7998532620907 492.98645348617737 15.999999999999998
    vertex -421.7998532620907 492.98645348617737 0.0
  endloop
endfacet
facet normal -0.4999999999999253 -0.8660254037844818 0.0
  outer loop
    vertex -429.5678024545204 475.5319708142723 14.0
    vertex -446.0222851264255 485.0319708142709 2.0000000000000004
    vertex -429.5678024545204 475.5319708142723 1.9999999999999998
  endloop
endfacet
facet normal -0.4999999999999253 -0.8660254037844818 0.0
  outer loop
    vertex -446.0222851264255 485.0319708142709 2.0000000000000004
    vertex -429.5678024545204 475.5319708142723 14.0
    vertex -446.0222851264255 485.0319708142709 14.0
  endloop
endfacet
facet normal 0.4999999999999253 0.8660254037844818 0.0
  outer loop
    vertex -452.02228512642455 474.6396659688571 2.0000000000000004
    vertex -435.5678024545195 465.1396659688586 14.0
    vertex -435.5678024545195 465.1396659688586 1.9999999999999998
  endloop
endfacet
facet normal 0.4999999999999253 0.8660254037844818 0.0
  outer loop
    vertex -435.5678024545195 465.1396659688586 14.0
    vertex -452.02228512642455 474.6396659688571 2.0000000000000004
    vertex -452.02228512642455 474.6396659688571 14.0
  endloop
endfacet
facet normal 0.8660254037844818 -0.4999999999999253 0.0
  outer loop
    vertex -420.06780245452177 491.9864534861775 1.9999999999999991
    vertex -429.5678024545204 475.5319708142723 14.0
    vertex -429.5678024545204 475.5319708142723 1.9999999999999998
  endloop
endfacet
facet normal 0.8660254037844818 -0.4999999999999253 0.0
  outer loop
    vertex -429.5678024545204 475.5319708142723 14.0
    vertex -420.06780245452177 491.9864534861775 1.9999999999999991
    vertex -420.06780245452177 491.9864534861775 14.0
  endloop
endfacet
facet normal -0.8660254037844818 0.4999999999999253 0.0
  outer loop
    vertex -425.17549760910566 459.1396659688594 14.0
    vertex -434.6754976091042 442.6851832969543 1.9999999999999991
    vertex -434.6754976091042 442.6851832969543 14.0
  endloop
endfacet
facet normal -0.8660254037844818 0.4999999999999253 0.0
  outer loop
    vertex -434.6754976091042 442.6851832969543 1.9999999999999991
    vertex -425.17549760910566 459.1396659688594 14.0
    vertex -425.17549760910566 459.1396659688594 1.9999999999999998
  endloop
endfacet
facet normal 0.4999999999999253 0.8660254037844818 0.0
  outer loop
    vertex -416.44344680153773 470.26402162184235 15.999999999999998
    vertex -401.72101493720163 461.76402162184365 0.0
    vertex -416.44344680153773 470.26402162184235 0.0
  endloop
endfacet
facet normal 0.4999999999999253 0.8660254037844818 0.0
  outer loop
    vertex -401.72101493720163 461.76402162184365 0.0
    vertex -416.44344680153773 470.26402162184235 15.999999999999998
    vertex -401.72101493720163 461.76402162184365 15.999999999999998
  endloop
endfacet
facet normal -0.4999999999999253 -0.8660254037844818 0.0
  outer loop
    vertex -438.2998532620883 464.40761516128947 15.999999999999998
    vertex -453.02228512642444 472.90761516128816 0.0
    vertex -438.2998532620883 464.40761516128947 0.0
  endloop
endfacet
facet normal -0.4999999999999253 -0.8660254037844818 0.0
  outer loop
    vertex -453.02228512642444 472.90761516128816 0.0
    vertex -438.2998532620883 464.40761516128947 15.999999999999998
    vertex -453.02228512642444 472.90761516128816 15.999999999999998
  endloop
endfacet
facet normal 0.8660254037844818 -0.4999999999999253 0.0
  outer loop
    vertex -424.44344680153654 456.40761516129066 0.0
    vertex -432.94344680153523 441.68518329695445 15.999999999999998
    vertex -432.94344680153523 441.68518329695445 0.0
  endloop
endfacet
facet normal 0.8660254037844818 -0.4999999999999253 0.0
  outer loop
    vertex -432.94344680153523 441.68518329695445 15.999999999999998
    vertex -424.44344680153654 456.40761516129066 0.0
    vertex -424.44344680153654 456.40761516129066 15.999999999999998
  endloop
endfacet
facet normal 0.4999999999999253 0.8660254037844818 0.0
  outer loop
    vertex -445.02228512642563 486.76402162183985 15.999999999999998
    vertex -430.29985326208947 478.26402162184115 0.0
    vertex -445.02228512642563 486.76402162183985 0.0
  endloop
endfacet
facet normal 0.4999999999999253 0.8660254037844818 0.0
  outer loop
    vertex -430.29985326208947 478.26402162184115 0.0
    vertex -445.02228512642563 486.76402162183985 15.999999999999998
    vertex -430.29985326208947 478.26402162184115 15.999999999999998
  endloop
endfacet
facet normal -0.8660254037844818 0.4999999999999253 0.0
  outer loop
    vertex -453.02228512642444 472.90761516128816 15.999999999999998
    vertex -452.02228512642455 474.6396659688571 14.0
    vertex -453.02228512642444 472.90761516128816 0.0
  endloop
endfacet
facet normal -0.8660254037844818 0.4999999999999253 0.0
  outer loop
    vertex -452.02228512642455 474.6396659688571 14.0
    vertex -453.02228512642444 472.90761516128816 15.999999999999998
    vertex -445.02228512642563 486.76402162183985 15.999999999999998
  endloop
endfacet
facet normal -0.8660254037844818 0.4999999999999253 0.0
  outer loop
    vertex -452.02228512642455 474.6396659688571 14.0
    vertex -445.02228512642563 486.76402162183985 15.999999999999998
    vertex -446.0222851264255 485.0319708142709 14.0
  endloop
endfacet
facet normal -0.8660254037844818 0.4999999999999253 0.0
  outer loop
    vertex -446.0222851264255 485.0319708142709 14.0
    vertex -445.02228512642563 486.76402162183985 15.999999999999998
    vertex -446.0222851264255 485.0319708142709 2.0000000000000004
  endloop
endfacet
facet normal -0.8660254037844818 0.4999999999999253 0.0
  outer loop
    vertex -453.02228512642444 472.90761516128816 0.0
    vertex -452.02228512642455 474.6396659688571 2.0000000000000004
    vertex -445.02228512642563 486.76402162183985 0.0
  endloop
endfacet
facet normal -0.8660254037844818 0.4999999999999253 0.0
  outer loop
    vertex -452.02228512642455 474.6396659688571 2.0000000000000004
    vertex -453.02228512642444 472.90761516128816 0.0
    vertex -452.02228512642455 474.6396659688571 14.0
  endloop
endfacet
facet normal -0.8660254037844818 0.4999999999999253 0.0
  outer loop
    vertex -445.02228512642563 486.76402162183985 0.0
    vertex -452.02228512642455 474.6396659688571 2.0000000000000004
    vertex -446.0222851264255 485.0319708142709 2.0000000000000004
  endloop
endfacet
facet normal -0.8660254037844818 0.4999999999999253 0.0
  outer loop
    vertex -445.02228512642563 486.76402162183985 0.0
    vertex -446.0222851264255 485.0319708142709 2.0000000000000004
    vertex -445.02228512642563 486.76402162183985 15.999999999999998
  endloop
endfacet
facet normal -0.8660254037844818 0.4999999999999253 0.0
  outer loop
    vertex -438.2998532620883 464.40761516128947 15.999999999999998
    vertex -446.799853262087 449.68518329695326 0.0
    vertex -446.799853262087 449.68518329695326 15.999999999999998
  endloop
endfacet
facet normal -0.8660254037844818 0.4999999999999253 0.0
  outer loop
    vertex -446.799853262087 449.68518329695326 0.0
    vertex -438.2998532620883 464.40761516128947 15.999999999999998
    vertex -438.2998532620883 464.40761516128947 0.0
  endloop
endfacet
facet normal 0.4999999999999253 0.8660254037844818 0.0
  outer loop
    vertex -421.7998532620907 492.98645348617737 0.0
    vertex -420.06780245452177 491.9864534861775 1.9999999999999991
    vertex -407.94344680153904 484.98645348617856 0.0
  endloop
endfacet
facet normal 0.4999999999999253 0.8660254037844818 0.0
  outer loop
    vertex -420.06780245452177 491.9864534861775 1.9999999999999991
    vertex -421.7998532620907 492.98645348617737 0.0
    vertex -421.7998532620907 492.98645348617737 15.999999999999998
  endloop
endfacet
facet normal 0.4999999999999253 0.8660254037844818 0.0
  outer loop
    vertex -420.06780245452177 491.9864534861775 1.9999999999999991
    vertex -421.7998532620907 492.98645348617737 15.999999999999998
    vertex -420.06780245452177 491.9864534861775 14.0
  endloop
endfacet
facet normal 0.4999999999999253 0.8660254037844818 0.0
  outer loop
    vertex -420.06780245452177 491.9864534861775 14.0
    vertex -421.7998532620907 492.98645348617737 15.999999999999998
    vertex -409.675497609108 485.98645348617833 14.0
  endloop
endfacet
facet normal 0.4999999999999253 0.8660254037844818 0.0
  outer loop
    vertex -407.94344680153904 484.98645348617856 0.0
    vertex -409.675497609108 485.98645348617833 1.9999999999999991
    vertex -407.94344680153904 484.98645348617856 15.999999999999998
  endloop
endfacet
facet normal 0.4999999999999253 0.8660254037844818 0.0
  outer loop
    vertex -409.675497609108 485.98645348617833 1.9999999999999991
    vertex -407.94344680153904 484.98645348617856 0.0
    vertex -420.06780245452177 491.9864534861775 1.9999999999999991
  endloop
endfacet
facet normal 0.4999999999999253 0.8660254037844818 0.0
  outer loop
    vertex -407.94344680153904 484.98645348617856 15.999999999999998
    vertex -409.675497609108 485.98645348617833 1.9999999999999991
    vertex -409.675497609108 485.98645348617833 14.0
  endloop
endfacet
facet normal 0.4999999999999253 0.8660254037844818 0.0
  outer loop
    vertex -407.94344680153904 484.98645348617856 15.999999999999998
    vertex -409.675497609108 485.98645348617833 14.0
    vertex -421.7998532620907 492.98645348617737 15.999999999999998
  endloop
endfacet
facet normal 0.4999999999999253 0.8660254037844818 0.0
  outer loop
    vertex -425.17549760910566 459.1396659688594 14.0
    vertex -408.72101493720055 449.6396659688608 2.0000000000000004
    vertex -425.17549760910566 459.1396659688594 1.9999999999999998
  endloop
endfacet
facet normal 0.4999999999999253 0.8660254037844818 0.0
  outer loop
    vertex -408.72101493720055 449.6396659688608 2.0000000000000004
    vertex -425.17549760910566 459.1396659688594 14.0
    vertex -408.72101493720055 449.6396659688608 14.0
  endloop
endfacet
facet normal 0.0 0.0 -1.0
  outer loop
    vertex -401.72101493720163 461.76402162184365 0.0
    vertex -424.44344680153654 456.40761516129066 0.0
    vertex -416.44344680153773 470.26402162184235 0.0
  endloop
endfacet
facet normal 0.0 0.0 -1.0
  outer loop
    vertex -424.44344680153654 456.40761516129066 0.0
    vertex -401.72101493720163 461.76402162184365 0.0
    vertex -409.72101493720044 447.90761516129186 0.0
  endloop
endfacet
facet normal 0.0 0.0 -1.0
  outer loop
    vertex -407.94344680153904 484.98645348617856 0.0
    vertex -430.29985326208947 478.26402162184115 0.0
    vertex -421.7998532620907 492.98645348617737 0.0
  endloop
endfacet
facet normal 0.0 0.0 -1.0
  outer loop
    vertex -430.29985326208947 478.26402162184115 0.0
    vertex -407.94344680153904 484.98645348617856 0.0
    vertex -438.2998532620883 464.40761516128947 0.0
  endloop
endfacet
facet normal 0.0 0.0 -1.0
  outer loop
    vertex -438.2998532620883 464.40761516128947 0.0
    vertex -407.94344680153904 484.98645348617856 0.0
    vertex -446.799853262087 449.68518329695326 0.0
  endloop
endfacet
facet normal 0.0 0.0 -1.0
  outer loop
    vertex -446.799853262087 449.68518329695326 0.0
    vertex -407.94344680153904 484.98645348617856 0.0
    vertex -432.94344680153523 441.68518329695445 0.0
  endloop
endfacet
facet normal 0.0 0.0 -1.0
  outer loop
    vertex -432.94344680153523 441.68518329695445 0.0
    vertex -407.94344680153904 484.98645348617856 0.0
    vertex -416.44344680153773 470.26402162184235 0.0
  endloop
endfacet
facet normal 0.0 0.0 -1.0
  outer loop
    vertex -432.94344680153523 441.68518329695445 0.0
    vertex -416.44344680153773 470.26402162184235 0.0
    vertex -424.44344680153654 456.40761516129066 0.0
  endloop
endfacet
facet normal 0.0 0.0 -1.0
  outer loop
    vertex -430.29985326208947 478.26402162184115 0.0
    vertex -453.02228512642444 472.90761516128816 0.0
    vertex -445.02228512642563 486.76402162183985 0.0
  endloop
endfacet
facet normal 0.0 0.0 -1.0
  outer loop
    vertex -453.02228512642444 472.90761516128816 0.0
    vertex -430.29985326208947 478.26402162184115 0.0
    vertex -438.2998532620883 464.40761516128947 0.0
  endloop
endfacet
facet normal 0.0 0.0 1.0
  outer loop
    vertex -408.72101493720055 449.6396659688608 2.0000000000000004
    vertex -419.17549760910657 469.5319708142732 1.9999999999999998
    vertex -425.17549760910566 459.1396659688594 1.9999999999999998
  endloop
endfacet
facet normal 0.0 0.0 1.0
  outer loop
    vertex -419.17549760910657 469.5319708142732 1.9999999999999998
    vertex -408.72101493720055 449.6396659688608 2.0000000000000004
    vertex -402.72101493720146 460.03197081427464 2.0000000000000004
  endloop
endfacet
facet normal 0.0 0.0 1.0
  outer loop
    vertex -434.6754976091042 442.6851832969543 1.9999999999999991
    vertex -435.5678024545195 465.1396659688586 1.9999999999999998
    vertex -445.067802454518 448.68518329695337 1.9999999999999991
  endloop
endfacet
facet normal 0.0 0.0 1.0
  outer loop
    vertex -435.5678024545195 465.1396659688586 1.9999999999999998
    vertex -434.6754976091042 442.6851832969543 1.9999999999999991
    vertex -429.5678024545204 475.5319708142723 1.9999999999999998
  endloop
endfacet
facet normal 0.0 0.0 1.0
  outer loop
    vertex -429.5678024545204 475.5319708142723 1.9999999999999998
    vertex -434.6754976091042 442.6851832969543 1.9999999999999991
    vertex -420.06780245452177 491.9864534861775 1.9999999999999991
  endloop
endfacet
facet normal 0.0 0.0 1.0
  outer loop
    vertex -420.06780245452177 491.9864534861775 1.9999999999999991
    vertex -434.6754976091042 442.6851832969543 1.9999999999999991
    vertex -409.675497609108 485.98645348617833 1.9999999999999991
  endloop
endfacet
facet normal 0.0 0.0 1.0
  outer loop
    vertex -409.675497609108 485.98645348617833 1.9999999999999991
    vertex -434.6754976091042 442.6851832969543 1.9999999999999991
    vertex -425.17549760910566 459.1396659688594 1.9999999999999998
  endloop
endfacet
facet normal 0.0 0.0 1.0
  outer loop
    vertex -409.675497609108 485.98645348617833 1.9999999999999991
    vertex -425.17549760910566 459.1396659688594 1.9999999999999998
    vertex -419.17549760910657 469.5319708142732 1.9999999999999998
  endloop
endfacet
facet normal 0.0 0.0 1.0
  outer loop
    vertex -435.5678024545195 465.1396659688586 1.9999999999999998
    vertex -446.0222851264255 485.0319708142709 2.0000000000000004
    vertex -452.02228512642455 474.6396659688571 2.0000000000000004
  endloop
endfacet
facet normal 0.0 0.0 1.0
  outer loop
    vertex -446.0222851264255 485.0319708142709 2.0000000000000004
    vertex -435.5678024545195 465.1396659688586 1.9999999999999998
    vertex -429.5678024545204 475.5319708142723 1.9999999999999998
  endloop
endfacet
facet normal -0.4999999999999253 -0.8660254037844818 0.0
  outer loop
    vertex -409.72101493720044 447.90761516129186 15.999999999999998
    vertex -424.44344680153654 456.40761516129066 0.0
    vertex -409.72101493720044 447.90761516129186 0.0
  endloop
endfacet
facet normal -0.4999999999999253 -0.8660254037844818 0.0
  outer loop
    vertex -424.44344680153654 456.40761516129066 0.0
    vertex -409.72101493720044 447.90761516129186 15.999999999999998
    vertex -424.44344680153654 456.40761516129066 15.999999999999998
  endloop
endfacet
facet normal 0.8660254037844818 -0.4999999999999253 0.0
  outer loop
    vertex -409.72101493720044 447.90761516129186 0.0
    vertex -408.72101493720055 449.6396659688608 2.0000000000000004
    vertex -409.72101493720044 447.90761516129186 15.999999999999998
  endloop
endfacet
facet normal 0.8660254037844818 -0.4999999999999253 0.0
  outer loop
    vertex -408.72101493720055 449.6396659688608 2.0000000000000004
    vertex -409.72101493720044 447.90761516129186 0.0
    vertex -401.72101493720163 461.76402162184365 0.0
  endloop
endfacet
facet normal 0.8660254037844818 -0.4999999999999253 0.0
  outer loop
    vertex -408.72101493720055 449.6396659688608 2.0000000000000004
    vertex -401.72101493720163 461.76402162184365 0.0
    vertex -402.72101493720146 460.03197081427464 2.0000000000000004
  endloop
endfacet
facet normal 0.8660254037844818 -0.4999999999999253 0.0
  outer loop
    vertex -402.72101493720146 460.03197081427464 2.0000000000000004
    vertex -401.72101493720163 461.76402162184365 0.0
    vertex -402.72101493720146 460.03197081427464 14.0
  endloop
endfacet
facet normal 0.8660254037844818 -0.4999999999999253 0.0
  outer loop
    vertex -409.72101493720044 447.90761516129186 15.999999999999998
    vertex -408.72101493720055 449.6396659688608 14.0
    vertex -401.72101493720163 461.76402162184365 15.999999999999998
  endloop
endfacet
facet normal 0.8660254037844818 -0.4999999999999253 0.0
  outer loop
    vertex -408.72101493720055 449.6396659688608 14.0
    vertex -409.72101493720044 447.90761516129186 15.999999999999998
    vertex -408.72101493720055 449.6396659688608 2.0000000000000004
  endloop
endfacet
facet normal 0.8660254037844818 -0.4999999999999253 0.0
  outer loop
    vertex -401.72101493720163 461.76402162184365 15.999999999999998
    vertex -408.72101493720055 449.6396659688608 14.0
    vertex -402.72101493720146 460.03197081427464 14.0
  endloop
endfacet
facet normal 0.8660254037844818 -0.4999999999999253 0.0
  outer loop
    vertex -401.72101493720163 461.76402162184365 15.999999999999998
    vertex -402.72101493720146 460.03197081427464 14.0
    vertex -401.72101493720163 461.76402162184365 0.0
  endloop
endfacet
facet normal 0.0 0.0 1.0
  outer loop
    vertex -409.72101493720044 447.90761516129186 15.999999999999998
    vertex -416.44344680153773 470.26402162184235 15.999999999999998
    vertex -424.44344680153654 456.40761516129066 15.999999999999998
  endloop
endfacet
facet normal 0.0 0.0 1.0
  outer loop
    vertex -416.44344680153773 470.26402162184235 15.999999999999998
    vertex -409.72101493720044 447.90761516129186 15.999999999999998
    vertex -401.72101493720163 461.76402162184365 15.999999999999998
  endloop
endfacet
facet normal 0.0 0.0 1.0
  outer loop
    vertex -432.94344680153523 441.68518329695445 15.999999999999998
    vertex -438.2998532620883 464.40761516128947 15.999999999999998
    vertex -446.799853262087 449.68518329695326 15.999999999999998
  endloop
endfacet
facet normal 0.0 0.0 1.0
  outer loop
    vertex -438.2998532620883 464.40761516128947 15.999999999999998
    vertex -432.94344680153523 441.68518329695445 15.999999999999998
    vertex -430.29985326208947 478.26402162184115 15.999999999999998
  endloop
endfacet
facet normal 0.0 0.0 1.0
  outer loop
    vertex -430.29985326208947 478.26402162184115 15.999999999999998
    vertex -432.94344680153523 441.68518329695445 15.999999999999998
    vertex -421.7998532620907 492.98645348617737 15.999999999999998
  endloop
endfacet
facet normal 0.0 0.0 1.0
  outer loop
    vertex -421.7998532620907 492.98645348617737 15.999999999999998
    vertex -432.94344680153523 441.68518329695445 15.999999999999998
    vertex -407.94344680153904 484.98645348617856 15.999999999999998
  endloop
endfacet
facet normal 0.0 0.0 1.0
  outer loop
    vertex -407.94344680153904 484.98645348617856 15.999999999999998
    vertex -432.94344680153523 441.68518329695445 15.999999999999998
    vertex -424.44344680153654 456.40761516129066 15.999999999999998
  endloop
endfacet
facet normal 0.0 0.0 1.0
  outer loop
    vertex -407.94344680153904 484.98645348617856 15.999999999999998
    vertex -424.44344680153654 456.40761516129066 15.999999999999998
    vertex -416.44344680153773 470.26402162184235 15.999999999999998
  endloop
endfacet
facet normal 0.0 0.0 1.0
  outer loop
    vertex -438.2998532620883 464.40761516128947 15.999999999999998
    vertex -445.02228512642563 486.76402162183985 15.999999999999998
    vertex -453.02228512642444 472.90761516128816 15.999999999999998
  endloop
endfacet
facet normal 0.0 0.0 1.0
  outer loop
    vertex -445.02228512642563 486.76402162183985 15.999999999999998
    vertex -438.2998532620883 464.40761516128947 15.999999999999998
    vertex -430.29985326208947 478.26402162184115 15.999999999999998
  endloop
endfacet
facet normal 0.8660254037844818 -0.4999999999999253 0.0
  outer loop
    vertex -435.5678024545195 465.1396659688586 1.9999999999999998
    vertex -445.067802454518 448.68518329695337 14.0
    vertex -445.067802454518 448.68518329695337 1.9999999999999991
  endloop
endfacet
facet normal 0.8660254037844818 -0.4999999999999253 0.0
  outer loop
    vertex -445.067802454518 448.68518329695337 14.0
    vertex -435.5678024545195 465.1396659688586 1.9999999999999998
    vertex -435.5678024545195 465.1396659688586 14.0
  endloop
endfacet
facet normal 0.0 0.0 -1.0
  outer loop
    vertex -402.72101493720146 460.03197081427464 14.0
    vertex -425.17549760910566 459.1396659688594 14.0
    vertex -419.17549760910657 469.5319708142732 14.0
  endloop
endfacet
facet normal 0.0 0.0 -1.0
  outer loop
    vertex -425.17549760910566 459.1396659688594 14.0
    vertex -402.72101493720146 460.03197081427464 14.0
    vertex -408.72101493720055 449.6396659688608 14.0
  endloop
endfacet
facet normal 0.0 0.0 -1.0
  outer loop
    vertex -409.675497609108 485.98645348617833 14.0
    vertex -429.5678024545204 475.5319708142723 14.0
    vertex -420.06780245452177 491.9864534861775 14.0
  endloop
endfacet
facet normal 0.0 0.0 -1.0
  outer loop
    vertex -429.5678024545204 475.5319708142723 14.0
    vertex -409.675497609108 485.98645348617833 14.0
    vertex -435.5678024545195 465.1396659688586 14.0
  endloop
endfacet
facet normal 0.0 0.0 -1.0
  outer loop
    vertex -435.5678024545195 465.1396659688586 14.0
    vertex -409.675497609108 485.98645348617833 14.0
    vertex -445.067802454518 448.68518329695337 14.0
  endloop
endfacet
facet normal 0.0 0.0 -1.0
  outer loop
    vertex -445.067802454518 448.68518329695337 14.0
    vertex -409.675497609108 485.98645348617833 14.0
    vertex -434.6754976091042 442.6851832969543 14.0
  endloop
endfacet
facet normal 0.0 0.0 -1.0
  outer loop
    vertex -434.6754976091042 442.6851832969543 14.0
    vertex -409.675497609108 485.98645348617833 14.0
    vertex -419.17549760910657 469.5319708142732 14.0
  endloop
endfacet
facet normal 0.0 0.0 -1.0
  outer loop
    vertex -434.6754976091042 442.6851832969543 14.0
    vertex -419.17549760910657 469.5319708142732 14.0
    vertex -425.17549760910566 459.1396659688594 14.0
  endloop
endfacet
facet normal 0.0 0.0 -1.0
  outer loop
    vertex -429.5678024545204 475.5319708142723 14.0
    vertex -452.02228512642455 474.6396659688571 14.0
    vertex -446.0222851264255 485.0319708142709 14.0
  endloop
endfacet
facet normal 0.0 0.0 -1.0
  outer loop
    vertex -452.02228512642455 474.6396659688571 14.0
    vertex -429.5678024545204 475.5319708142723 14.0
    vertex -435.5678024545195 465.1396659688586 14.0
  endloop
endfacet
facet normal -0.4999999999999253 -0.8660254037844818 0.0
  outer loop
    vertex -402.72101493720146 460.03197081427464 2.0000000000000004
    vertex -419.17549760910657 469.5319708142732 14.0
    vertex -419.17549760910657 469.5319708142732 1.9999999999999998
  endloop
endfacet
facet normal -0.4999999999999253 -0.8660254037844818 0.0
  outer loop
    vertex -419.17549760910657 469.5319708142732 14.0
    vertex -402.72101493720146 460.03197081427464 2.0000000000000004
    vertex -402.72101493720146 460.03197081427464 14.0
  endloop
endfacet
facet normal -0.8660254037844818 0.4999999999999253 0.0
  outer loop
    vertex -409.675497609108 485.98645348617833 14.0
    vertex -419.17549760910657 469.5319708142732 1.9999999999999998
    vertex -419.17549760910657 469.5319708142732 14.0
  endloop
endfacet
facet normal -0.8660254037844818 0.4999999999999253 0.0
  outer loop
    vertex -419.17549760910657 469.5319708142732 1.9999999999999998
    vertex -409.675497609108 485.98645348617833 14.0
    vertex -409.675497609108 485.98645348617833 1.9999999999999991
  endloop
endfacet
facet normal 0.8660254037844818 -0.4999999999999253 0.0
  outer loop
    vertex -407.94344680153904 484.98645348617856 0.0
    vertex -416.44344680153773 470.26402162184235 15.999999999999998
    vertex -416.44344680153773 470.26402162184235 0.0
  endloop
endfacet
facet normal 0.8660254037844818 -0.4999999999999253 0.0
  outer loop
    vertex -416.44344680153773 470.26402162184235 15.999999999999998
    vertex -407.94344680153904 484.98645348617856 0.0
    vertex -407.94344680153904 484.98645348617856 15.999999999999998
  endloop
endfacet
facet normal -0.4999999999999253 -0.8660254037844818 0.0
  outer loop
    vertex -432.94344680153523 441.68518329695445 0.0
    vertex -434.6754976091042 442.6851832969543 1.9999999999999991
    vertex -446.799853262087 449.68518329695326 0.0
  endloop
endfacet
facet normal -0.4999999999999253 -0.8660254037844818 0.0
  outer loop
    vertex -434.6754976091042 442.6851832969543 1.9999999999999991
    vertex -432.94344680153523 441.68518329695445 0.0
    vertex -432.94344680153523 441.68518329695445 15.999999999999998
  endloop
endfacet
facet normal -0.4999999999999253 -0.8660254037844818 0.0
  outer loop
    vertex -434.6754976091042 442.6851832969543 1.9999999999999991
    vertex -432.94344680153523 441.68518329695445 15.999999999999998
    vertex -434.6754976091042 442.6851832969543 14.0
  endloop
endfacet
facet normal -0.4999999999999253 -0.8660254037844818 0.0
  outer loop
    vertex -434.6754976091042 442.6851832969543 14.0
    vertex -432.94344680153523 441.68518329695445 15.999999999999998
    vertex -445.067802454518 448.68518329695337 14.0
  endloop
endfacet
facet normal -0.4999999999999253 -0.8660254037844818 0.0
  outer loop
    vertex -446.799853262087 449.68518329695326 0.0
    vertex -445.067802454518 448.68518329695337 1.9999999999999991
    vertex -446.799853262087 449.68518329695326 15.999999999999998
  endloop
endfacet
facet normal -0.4999999999999253 -0.8660254037844818 0.0
  outer loop
    vertex -445.067802454518 448.68518329695337 1.9999999999999991
    vertex -446.799853262087 449.68518329695326 0.0
    vertex -434.6754976091042 442.6851832969543 1.9999999999999991
  endloop
endfacet
facet normal -0.4999999999999253 -0.8660254037844818 0.0
  outer loop
    vertex -446.799853262087 449.68518329695326 15.999999999999998
    vertex -445.067802454518 448.68518329695337 1.9999999999999991
    vertex -445.067802454518 448.68518329695337 14.0
  endloop
endfacet
facet normal -0.4999999999999253 -0.8660254037844818 0.0
  outer loop
    vertex -446.799853262087 449.68518329695326 15.999999999999998
    vertex -445.067802454518 448.68518329695337 14.0
    vertex -432.94344680153523 441.68518329695445 15.999999999999998
  endloop
endfacet
endsolid stromek
