solid stromek
facet normal -8.517851986866674e-17 1.4056789271667827e-16 -1.0
  outer loop
    vertex -474.39347231413535 420.1115502066101 5.99999999999999
    vertex -471.8681529478048 400.6156680918024 5.999999999999988
    vertex -482.87875368837393 411.6262688323717 5.99999999999999
  endloop
endfacet
facet normal -8.517851986866674e-17 1.4056789271667827e-16 -1.0
  outer loop
    vertex -471.8681529478048 400.6156680918024 5.999999999999988
    vertex -474.39347231413535 420.1115502066101 5.99999999999999
    vertex -463.3828715735662 409.10094946604096 5.999999999999988
  endloop
endfacet
facet normal -0.7071067811865475 -0.7071067811865477 3.0208539530049884e-15
  outer loop
    vertex -463.3828715735662 409.10094946604096 -6.000000000000013
    vertex -474.7109806019681 420.429058494443 5.999999999999982
    vertex -474.71098060196823 420.429058494443 -6.000000000000016
  endloop
endfacet
facet normal -0.7071067811865475 -0.7071067811865477 3.0208539530049884e-15
  outer loop
    vertex -474.7109806019681 420.429058494443 5.999999999999982
    vertex -463.3828715735662 409.10094946604096 -6.000000000000013
    vertex -463.3828715735662 409.10094946604096 5.999999999999988
  endloop
endfacet
facet normal -0.7071067811865475 -0.7071067811865477 3.0208539530049884e-15
  outer loop
    vertex -474.7109806019681 420.429058494443 5.999999999999982
    vertex -477.91945181654717 423.6375297090221 25.23242872089527
    vertex -483.5858604695605 429.3039383620353 5.999999999999973
  endloop
endfacet
facet normal -0.7071067811865475 -0.7071067811865477 3.0208539530049884e-15
  outer loop
    vertex -477.91945181654717 423.6375297090221 25.23242872089527
    vertex -474.7109806019681 420.429058494443 5.999999999999982
    vertex -474.39347231413535 420.1115502066101 5.99999999999999
  endloop
endfacet
facet normal -0.7071067811865475 -0.7071067811865477 3.0208539530049884e-15
  outer loop
    vertex -474.39347231413535 420.1115502066101 5.99999999999999
    vertex -474.7109806019681 420.429058494443 5.999999999999982
    vertex -463.3828715735662 409.10094946604096 5.999999999999988
  endloop
endfacet
facet normal -0.7071067811865475 -0.7071067811865477 3.0208539530049884e-15
  outer loop
    vertex -477.91945181654717 423.6375297090221 25.23242872089527
    vertex -474.39347231413535 420.1115502066101 5.99999999999999
    vertex -470.0868843941731 415.80496228664805 20.617044105510622
  endloop
endfacet
facet normal 0.7071067811865487 0.7071067811865465 -2.8264425599897888e-15
  outer loop
    vertex -483.1962619762068 411.9437771202044 -6.0000000000000195
    vertex -471.8681529478048 400.6156680918024 5.999999999999988
    vertex -471.8681529478048 400.6156680918024 -6.000000000000013
  endloop
endfacet
facet normal 0.7071067811865487 0.7071067811865465 -2.8264425599897888e-15
  outer loop
    vertex -471.8681529478048 400.6156680918024 5.999999999999988
    vertex -483.1962619762068 411.9437771202044 -6.0000000000000195
    vertex -482.87875368837393 411.6262688323717 5.99999999999999
  endloop
endfacet
facet normal 0.7071067811865487 0.7071067811865465 -2.8264425599897888e-15
  outer loop
    vertex -482.87875368837393 411.6262688323717 5.99999999999999
    vertex -486.4047331907858 415.15224833478356 25.23242872089526
    vertex -478.5721657684117 407.31968091240947 20.617044105510754
  endloop
endfacet
facet normal 0.7071067811865487 0.7071067811865465 -2.8264425599897888e-15
  outer loop
    vertex -486.4047331907858 415.15224833478356 25.23242872089526
    vertex -482.87875368837393 411.6262688323717 5.99999999999999
    vertex -483.1962619762067 411.9437771202044 5.999999999999976
  endloop
endfacet
facet normal 0.7071067811865487 0.7071067811865465 -2.8264425599897888e-15
  outer loop
    vertex -483.1962619762067 411.9437771202044 5.999999999999976
    vertex -482.87875368837393 411.6262688323717 5.99999999999999
    vertex -483.1962619762068 411.9437771202044 -6.0000000000000195
  endloop
endfacet
facet normal 0.7071067811865487 0.7071067811865465 -2.8264425599897888e-15
  outer loop
    vertex -486.4047331907858 415.15224833478356 25.23242872089526
    vertex -483.1962619762067 411.9437771202044 5.999999999999976
    vertex -492.07114184379907 420.8186569877967 5.999999999999976
  endloop
endfacet
facet normal 0.7071067811865671 -0.7071067811865279 5.319803078471338e-15
  outer loop
    vertex -487.5992823845399 428.0792555036533 -6.000000000000054
    vertex -490.8464589854171 424.83207890277606 5.999999999999988
    vertex -490.8464589854171 424.83207890277606 -6.0000000000000115
  endloop
endfacet
facet normal 0.7071067811865671 -0.7071067811865279 5.319803078471338e-15
  outer loop
    vertex -490.8464589854171 424.83207890277606 5.999999999999988
    vertex -487.5992823845399 428.0792555036533 -6.000000000000054
    vertex -487.59928238454006 428.0792555036533 5.999999999999945
  endloop
endfacet
facet normal 0.7071067811865474 0.7071067811865478 -1.930560387933103e-15
  outer loop
    vertex -477.8106661579031 426.3571711751242 26.001659490126052
    vertex -471.1802468725077 419.7267518897288 7.999999999999989
    vertex -483.1144559487694 431.66096096599045 7.99999999999997
  endloop
endfacet
facet normal 0.7071067811865474 0.7071067811865478 -1.930560387933103e-15
  outer loop
    vertex -471.1802468725077 419.7267518897288 7.999999999999989
    vertex -477.8106661579031 426.3571711751242 26.001659490126052
    vertex -467.367242928071 415.91374794529213 19.84781333627983
  endloop
endfacet
facet normal 0.7071067811865474 0.7071067811865478 -1.930560387933103e-15
  outer loop
    vertex -471.1802468725077 419.7267518897288 7.999999999999989
    vertex -461.968658011193 410.51516302841407 -8.000000000000014
    vertex -471.18024687250784 419.7267518897288 -8.000000000000014
  endloop
endfacet
facet normal 0.7071067811865474 0.7071067811865478 -1.930560387933103e-15
  outer loop
    vertex -461.968658011193 410.51516302841407 -8.000000000000014
    vertex -471.1802468725077 419.7267518897288 7.999999999999989
    vertex -470.8579384082026 419.4044434254236 7.999999999999987
  endloop
endfacet
facet normal 0.7071067811865474 0.7071067811865478 -1.930560387933103e-15
  outer loop
    vertex -470.8579384082026 419.4044434254236 7.999999999999987
    vertex -471.1802468725077 419.7267518897288 7.999999999999989
    vertex -467.367242928071 415.91374794529213 19.84781333627983
  endloop
endfacet
facet normal 0.7071067811865474 0.7071067811865478 -1.930560387933103e-15
  outer loop
    vertex -461.968658011193 410.51516302841407 7.999999999999987
    vertex -461.968658011193 410.51516302841407 -8.000000000000014
    vertex -470.8579384082026 419.4044434254236 7.999999999999987
  endloop
endfacet
facet normal 0.38268343236509383 -0.9238795325112851 2.8777452071891994e-15
  outer loop
    vertex -464.5022940717576 437.6463413127804 -5.999999999999986
    vertex -487.59928238454006 428.0792555036533 5.999999999999945
    vertex -487.5992823845399 428.0792555036533 -6.000000000000054
  endloop
endfacet
facet normal 0.38268343236509383 -0.9238795325112851 2.8777452071891994e-15
  outer loop
    vertex -487.59928238454006 428.0792555036533 5.999999999999945
    vertex -464.5022940717576 437.6463413127804 -5.999999999999986
    vertex -464.5022940717576 437.6463413127804 6.000000000000016
  endloop
endfacet
facet normal 0.9238795325112862 -0.38268343236509156 0.0
  outer loop
    vertex -490.8464589854171 424.83207890277606 -6.0000000000000115
    vertex -500.41354479454407 401.73509058999366 5.999999999999988
    vertex -500.41354479454407 401.73509058999366 -6.0000000000000115
  endloop
endfacet
facet normal 0.9238795325112862 -0.38268343236509156 0.0
  outer loop
    vertex -500.41354479454407 401.73509058999366 5.999999999999988
    vertex -490.8464589854171 424.83207890277606 -6.0000000000000115
    vertex -490.8464589854171 424.83207890277606 5.999999999999988
  endloop
endfacet
facet normal 1.444109021819464e-15 -7.055383850813712e-16 -1.0
  outer loop
    vertex -490.8464589854171 424.83207890277606 5.999999999999988
    vertex -492.07114184379907 420.8186569877967 5.999999999999976
    vertex -500.41354479454407 401.73509058999366 5.999999999999988
  endloop
endfacet
facet normal 1.444109021819464e-15 -7.055383850813712e-16 -1.0
  outer loop
    vertex -492.07114184379907 420.8186569877967 5.999999999999976
    vertex -490.8464589854171 424.83207890277606 5.999999999999988
    vertex -483.5858604695605 429.3039383620353 5.999999999999973
  endloop
endfacet
facet normal 1.444109021819464e-15 -7.055383850813712e-16 -1.0
  outer loop
    vertex -483.5858604695605 429.3039383620353 5.999999999999973
    vertex -490.8464589854171 424.83207890277606 5.999999999999988
    vertex -487.59928238454006 428.0792555036533 5.999999999999945
  endloop
endfacet
facet normal 1.444109021819464e-15 -7.055383850813712e-16 -1.0
  outer loop
    vertex -483.5858604695605 429.3039383620353 5.999999999999973
    vertex -487.59928238454006 428.0792555036533 5.999999999999945
    vertex -464.5022940717576 437.6463413127804 6.000000000000016
  endloop
endfacet
facet normal 1.444109021819464e-15 -7.055383850813712e-16 -1.0
  outer loop
    vertex -483.5858604695605 429.3039383620353 5.999999999999973
    vertex -464.5022940717576 437.6463413127804 6.000000000000016
    vertex -474.7109806019681 420.429058494443 5.999999999999982
  endloop
endfacet
facet normal 1.444109021819464e-15 -7.055383850813712e-16 -1.0
  outer loop
    vertex -474.7109806019681 420.429058494443 5.999999999999982
    vertex -464.5022940717576 437.6463413127804 6.000000000000016
    vertex -459.91009288337654 426.55978692264495 6.000000000000016
  endloop
endfacet
facet normal 1.444109021819464e-15 -7.055383850813712e-16 -1.0
  outer loop
    vertex -492.07114184379907 420.8186569877967 5.999999999999976
    vertex -489.3269904044086 397.1428894016126 5.999999999999988
    vertex -500.41354479454407 401.73509058999366 5.999999999999988
  endloop
endfacet
facet normal 1.444109021819464e-15 -7.055383850813712e-16 -1.0
  outer loop
    vertex -489.3269904044086 397.1428894016126 5.999999999999988
    vertex -492.07114184379907 420.8186569877967 5.999999999999976
    vertex -483.1962619762067 411.9437771202044 5.999999999999976
  endloop
endfacet
facet normal 0.6527139518645023 -0.652713951864512 -0.3846153846153787
  outer loop
    vertex -477.91945181654717 423.6375297090221 25.23242872089527
    vertex -492.07114184379907 420.8186569877967 5.999999999999976
    vertex -483.5858604695605 429.3039383620353 5.999999999999973
  endloop
endfacet
facet normal 0.6527139518645023 -0.652713951864512 -0.3846153846153787
  outer loop
    vertex -492.07114184379907 420.8186569877967 5.999999999999976
    vertex -477.91945181654717 423.6375297090221 25.23242872089527
    vertex -486.4047331907858 415.15224833478356 25.23242872089526
  endloop
endfacet
facet normal -1.1169019821248745e-15 4.784572258060662e-16 1.0
  outer loop
    vertex -487.4792313393861 396.3775225368824 7.999999999999987
    vertex -494.42816444775417 420.3472524670058 7.999999999999987
    vertex -502.2613038595667 402.50045745472386 7.999999999999987
  endloop
endfacet
facet normal -1.1169019821248745e-15 4.784572258060662e-16 1.0
  outer loop
    vertex -494.42816444775417 420.3472524670058 7.999999999999987
    vertex -487.4792313393861 396.3775225368824 7.999999999999987
    vertex -482.4939553714924 408.413043390744 7.999999999999979
  endloop
endfacet
facet normal -1.1169019821248745e-15 4.784572258060662e-16 1.0
  outer loop
    vertex -494.42816444775417 420.3472524670058 7.999999999999987
    vertex -492.6942180504396 425.5974457675063 7.999999999999987
    vertex -502.2613038595667 402.50045745472386 7.999999999999987
  endloop
endfacet
facet normal -1.1169019821248745e-15 4.784572258060662e-16 1.0
  outer loop
    vertex -492.6942180504396 425.5974457675063 7.999999999999987
    vertex -494.42816444775417 420.3472524670058 7.999999999999987
    vertex -483.1144559487694 431.66096096599045 7.99999999999997
  endloop
endfacet
facet normal -1.1169019821248745e-15 4.784572258060662e-16 1.0
  outer loop
    vertex -492.6942180504396 425.5974457675063 7.999999999999987
    vertex -483.1144559487694 431.66096096599045 7.99999999999997
    vertex -488.3646492492702 429.92701456867593 7.999999999999944
  endloop
endfacet
facet normal -1.1169019821248745e-15 4.784572258060662e-16 1.0
  outer loop
    vertex -488.3646492492702 429.92701456867593 7.999999999999944
    vertex -483.1144559487694 431.66096096599045 7.99999999999997
    vertex -465.2676609364878 439.4941003778029 8.000000000000014
  endloop
endfacet
facet normal -1.1169019821248745e-15 4.784572258060662e-16 1.0
  outer loop
    vertex -465.2676609364878 439.4941003778029 8.000000000000014
    vertex -483.1144559487694 431.66096096599045 7.99999999999997
    vertex -471.1802468725077 419.7267518897288 7.999999999999989
  endloop
endfacet
facet normal -1.1169019821248745e-15 4.784572258060662e-16 1.0
  outer loop
    vertex -465.2676609364878 439.4941003778029 8.000000000000014
    vertex -471.1802468725077 419.7267518897288 7.999999999999989
    vertex -459.1447260186463 424.7120278576224 8.000000000000014
  endloop
endfacet
facet normal -0.9238795325112914 0.3826834323650785 1.1883653590456807e-15
  outer loop
    vertex -483.1962619762067 411.9437771202044 5.999999999999976
    vertex -489.3269904044086 397.1428894016126 -6.000000000000013
    vertex -489.3269904044086 397.1428894016126 5.999999999999988
  endloop
endfacet
facet normal -0.9238795325112914 0.3826834323650785 1.1883653590456807e-15
  outer loop
    vertex -489.3269904044086 397.1428894016126 -6.000000000000013
    vertex -483.1962619762067 411.9437771202044 5.999999999999976
    vertex -483.1962619762068 411.9437771202044 -6.0000000000000195
  endloop
endfacet
facet normal -0.3826834323650844 0.923879532511289 4.4365640071039336e-15
  outer loop
    vertex -474.7109806019681 420.429058494443 5.999999999999982
    vertex -459.91009288337654 426.55978692264495 -5.999999999999986
    vertex -474.71098060196823 420.429058494443 -6.000000000000016
  endloop
endfacet
facet normal -0.3826834323650844 0.923879532511289 4.4365640071039336e-15
  outer loop
    vertex -459.91009288337654 426.55978692264495 -5.999999999999986
    vertex -474.7109806019681 420.429058494443 5.999999999999982
    vertex -459.91009288337654 426.55978692264495 6.000000000000016
  endloop
endfacet
facet normal -0.6527139518645014 0.6527139518645115 0.3846153846153811
  outer loop
    vertex -478.5721657684117 407.31968091240947 20.617044105510754
    vertex -474.39347231413535 420.1115502066101 5.99999999999999
    vertex -482.87875368837393 411.6262688323717 5.99999999999999
  endloop
endfacet
facet normal -0.6527139518645014 0.6527139518645115 0.3846153846153811
  outer loop
    vertex -474.39347231413535 420.1115502066101 5.99999999999999
    vertex -478.5721657684117 407.31968091240947 20.617044105510754
    vertex -470.0868843941731 415.80496228664805 20.617044105510622
  endloop
endfacet
facet normal -7.345029796331745e-16 4.6153923771918843e-17 1.0
  outer loop
    vertex -471.8681529478048 400.6156680918024 -6.000000000000013
    vertex -474.71098060196823 420.429058494443 -6.000000000000016
    vertex -483.1962619762068 411.9437771202044 -6.0000000000000195
  endloop
endfacet
facet normal -7.345029796331745e-16 4.6153923771918843e-17 1.0
  outer loop
    vertex -474.71098060196823 420.429058494443 -6.000000000000016
    vertex -471.8681529478048 400.6156680918024 -6.000000000000013
    vertex -463.3828715735662 409.10094946604096 -6.000000000000013
  endloop
endfacet
facet normal -7.345029796331745e-16 4.6153923771918843e-17 1.0
  outer loop
    vertex -489.3269904044086 397.1428894016126 -6.000000000000013
    vertex -490.8464589854171 424.83207890277606 -6.0000000000000115
    vertex -500.41354479454407 401.73509058999366 -6.0000000000000115
  endloop
endfacet
facet normal -7.345029796331745e-16 4.6153923771918843e-17 1.0
  outer loop
    vertex -490.8464589854171 424.83207890277606 -6.0000000000000115
    vertex -489.3269904044086 397.1428894016126 -6.000000000000013
    vertex -487.5992823845399 428.0792555036533 -6.000000000000054
  endloop
endfacet
facet normal -7.345029796331745e-16 4.6153923771918843e-17 1.0
  outer loop
    vertex -487.5992823845399 428.0792555036533 -6.000000000000054
    vertex -489.3269904044086 397.1428894016126 -6.000000000000013
    vertex -483.1962619762068 411.9437771202044 -6.0000000000000195
  endloop
endfacet
facet normal -7.345029796331745e-16 4.6153923771918843e-17 1.0
  outer loop
    vertex -487.5992823845399 428.0792555036533 -6.000000000000054
    vertex -483.1962619762068 411.9437771202044 -6.0000000000000195
    vertex -464.5022940717576 437.6463413127804 -5.999999999999986
  endloop
endfacet
facet normal -7.345029796331745e-16 4.6153923771918843e-17 1.0
  outer loop
    vertex -464.5022940717576 437.6463413127804 -5.999999999999986
    vertex -483.1962619762068 411.9437771202044 -6.0000000000000195
    vertex -474.71098060196823 420.429058494443 -6.000000000000016
  endloop
endfacet
facet normal -7.345029796331745e-16 4.6153923771918843e-17 1.0
  outer loop
    vertex -464.5022940717576 437.6463413127804 -5.999999999999986
    vertex -474.71098060196823 420.429058494443 -6.000000000000016
    vertex -459.91009288337654 426.55978692264495 -5.999999999999986
  endloop
endfacet
facet normal 0.3826834323650857 -0.9238795325112886 -3.393696252717714e-15
  outer loop
    vertex -459.1447260186463 424.7120278576224 -7.999999999999985
    vertex -471.1802468725077 419.7267518897288 7.999999999999989
    vertex -471.18024687250784 419.7267518897288 -8.000000000000014
  endloop
endfacet
facet normal 0.3826834323650857 -0.9238795325112886 -3.393696252717714e-15
  outer loop
    vertex -471.1802468725077 419.7267518897288 7.999999999999989
    vertex -459.1447260186463 424.7120278576224 -7.999999999999985
    vertex -459.1447260186463 424.7120278576224 8.000000000000014
  endloop
endfacet
facet normal 0.6527139518645051 -0.6527139518645095 -0.3846153846153783
  outer loop
    vertex -470.8579384082026 419.4044434254236 7.999999999999987
    vertex -478.6809514270558 404.60003944630733 19.847813336280023
    vertex -482.1716469071874 408.0907349264389 7.999999999999984
  endloop
endfacet
facet normal 0.6527139518645051 -0.6527139518645095 -0.3846153846153783
  outer loop
    vertex -478.6809514270558 404.60003944630733 19.847813336280023
    vertex -470.8579384082026 419.4044434254236 7.999999999999987
    vertex -467.367242928071 415.91374794529213 19.84781333627983
  endloop
endfacet
facet normal -0.707106781186566 0.7071067811865291 -2.0093522733120777e-15
  outer loop
    vertex -488.3646492492702 429.92701456867593 7.999999999999944
    vertex -492.6942180504396 425.5974457675063 -8.000000000000012
    vertex -492.6942180504396 425.5974457675063 7.999999999999987
  endloop
endfacet
facet normal -0.707106781186566 0.7071067811865291 -2.0093522733120777e-15
  outer loop
    vertex -492.6942180504396 425.5974457675063 -8.000000000000012
    vertex -488.3646492492702 429.92701456867593 7.999999999999944
    vertex -488.36464924927014 429.92701456867593 -8.000000000000055
  endloop
endfacet
facet normal -0.38268343236509383 0.9238795325112851 -2.1583089053918997e-15
  outer loop
    vertex -488.3646492492702 429.92701456867593 7.999999999999944
    vertex -465.26766093648774 439.4941003778029 -7.999999999999985
    vertex -488.36464924927014 429.92701456867593 -8.000000000000055
  endloop
endfacet
facet normal -0.38268343236509383 0.9238795325112851 -2.1583089053918997e-15
  outer loop
    vertex -465.26766093648774 439.4941003778029 -7.999999999999985
    vertex -488.3646492492702 429.92701456867593 7.999999999999944
    vertex -465.2676609364878 439.4941003778029 8.000000000000014
  endloop
endfacet
facet normal 0.2719641466102099 -0.27196414661020596 0.9230769230769247
  outer loop
    vertex -478.6809514270558 404.60003944630733 19.847813336280023
    vertex -486.4047331907858 415.15224833478356 25.23242872089526
    vertex -489.12437465688794 415.04346267613954 26.001659490126006
  endloop
endfacet
facet normal 0.2719641466102099 -0.27196414661020596 0.9230769230769247
  outer loop
    vertex -486.4047331907858 415.15224833478356 25.23242872089526
    vertex -478.6809514270558 404.60003944630733 19.847813336280023
    vertex -478.5721657684117 407.31968091240947 20.617044105510754
  endloop
endfacet
facet normal 0.2719641466102099 -0.27196414661020596 0.9230769230769247
  outer loop
    vertex -478.5721657684117 407.31968091240947 20.617044105510754
    vertex -478.6809514270558 404.60003944630733 19.847813336280023
    vertex -467.367242928071 415.91374794529213 19.84781333627983
  endloop
endfacet
facet normal 0.2719641466102099 -0.27196414661020596 0.9230769230769247
  outer loop
    vertex -478.5721657684117 407.31968091240947 20.617044105510754
    vertex -467.367242928071 415.91374794529213 19.84781333627983
    vertex -470.0868843941731 415.80496228664805 20.617044105510622
  endloop
endfacet
facet normal 0.2719641466102099 -0.27196414661020596 0.9230769230769247
  outer loop
    vertex -486.4047331907858 415.15224833478356 25.23242872089526
    vertex -477.8106661579031 426.3571711751242 26.001659490126052
    vertex -489.12437465688794 415.04346267613954 26.001659490126006
  endloop
endfacet
facet normal 0.2719641466102099 -0.27196414661020596 0.9230769230769247
  outer loop
    vertex -477.8106661579031 426.3571711751242 26.001659490126052
    vertex -486.4047331907858 415.15224833478356 25.23242872089526
    vertex -477.91945181654717 423.6375297090221 25.23242872089527
  endloop
endfacet
facet normal 0.2719641466102099 -0.27196414661020596 0.9230769230769247
  outer loop
    vertex -477.8106661579031 426.3571711751242 26.001659490126052
    vertex -477.91945181654717 423.6375297090221 25.23242872089527
    vertex -470.0868843941731 415.80496228664805 20.617044105510622
  endloop
endfacet
facet normal 0.2719641466102099 -0.27196414661020596 0.9230769230769247
  outer loop
    vertex -477.8106661579031 426.3571711751242 26.001659490126052
    vertex -470.0868843941731 415.80496228664805 20.617044105510622
    vertex -467.367242928071 415.91374794529213 19.84781333627983
  endloop
endfacet
facet normal -0.707106781186549 -0.7071067811865461 2.5245789688355627e-15
  outer loop
    vertex -489.12437465688794 415.04346267613954 26.001659490126006
    vertex -482.1716469071874 408.0907349264389 7.999999999999984
    vertex -478.6809514270558 404.60003944630733 19.847813336280023
  endloop
endfacet
facet normal -0.707106781186549 -0.7071067811865461 2.5245789688355627e-15
  outer loop
    vertex -482.1716469071874 408.0907349264389 7.999999999999984
    vertex -489.12437465688794 415.04346267613954 26.001659490126006
    vertex -482.4939553714924 408.413043390744 7.999999999999979
  endloop
endfacet
facet normal -0.707106781186549 -0.7071067811865461 2.5245789688355627e-15
  outer loop
    vertex -482.4939553714924 408.413043390744 7.999999999999979
    vertex -489.12437465688794 415.04346267613954 26.001659490126006
    vertex -494.42816444775417 420.3472524670058 7.999999999999987
  endloop
endfacet
facet normal -0.707106781186549 -0.7071067811865461 2.5245789688355627e-15
  outer loop
    vertex -482.1716469071874 408.0907349264389 7.999999999999984
    vertex -473.2823665101778 399.20145452942927 -8.000000000000014
    vertex -473.2823665101778 399.20145452942927 7.999999999999987
  endloop
endfacet
facet normal -0.707106781186549 -0.7071067811865461 2.5245789688355627e-15
  outer loop
    vertex -473.2823665101778 399.20145452942927 -8.000000000000014
    vertex -482.1716469071874 408.0907349264389 7.999999999999984
    vertex -482.49395537149263 408.413043390744 -8.000000000000018
  endloop
endfacet
facet normal -0.707106781186549 -0.7071067811865461 2.5245789688355627e-15
  outer loop
    vertex -482.49395537149263 408.413043390744 -8.000000000000018
    vertex -482.1716469071874 408.0907349264389 7.999999999999984
    vertex -482.4939553714924 408.413043390744 7.999999999999979
  endloop
endfacet
facet normal -0.9238795325112905 0.3826834323650808 0.0
  outer loop
    vertex -492.6942180504396 425.5974457675063 7.999999999999987
    vertex -502.2613038595667 402.50045745472386 -8.000000000000012
    vertex -502.2613038595667 402.50045745472386 7.999999999999987
  endloop
endfacet
facet normal -0.9238795325112905 0.3826834323650808 0.0
  outer loop
    vertex -502.2613038595667 402.50045745472386 -8.000000000000012
    vertex -492.6942180504396 425.5974457675063 7.999999999999987
    vertex -492.6942180504396 425.5974457675063 -8.000000000000012
  endloop
endfacet
facet normal -1.4162110867866402e-16 1.699501977064001e-17 1.0
  outer loop
    vertex -473.2823665101778 399.20145452942927 7.999999999999987
    vertex -470.8579384082026 419.4044434254236 7.999999999999987
    vertex -482.1716469071874 408.0907349264389 7.999999999999984
  endloop
endfacet
facet normal -1.4162110867866402e-16 1.699501977064001e-17 1.0
  outer loop
    vertex -470.8579384082026 419.4044434254236 7.999999999999987
    vertex -473.2823665101778 399.20145452942927 7.999999999999987
    vertex -461.968658011193 410.51516302841407 7.999999999999987
  endloop
endfacet
facet normal 6.924379372052563e-16 -3.227457582839443e-17 -1.0
  outer loop
    vertex -492.6942180504396 425.5974457675063 -8.000000000000012
    vertex -487.4792313393861 396.3775225368824 -8.000000000000012
    vertex -502.2613038595667 402.50045745472386 -8.000000000000012
  endloop
endfacet
facet normal 6.924379372052563e-16 -3.227457582839443e-17 -1.0
  outer loop
    vertex -487.4792313393861 396.3775225368824 -8.000000000000012
    vertex -492.6942180504396 425.5974457675063 -8.000000000000012
    vertex -488.36464924927014 429.92701456867593 -8.000000000000055
  endloop
endfacet
facet normal 6.924379372052563e-16 -3.227457582839443e-17 -1.0
  outer loop
    vertex -487.4792313393861 396.3775225368824 -8.000000000000012
    vertex -488.36464924927014 429.92701456867593 -8.000000000000055
    vertex -482.49395537149263 408.413043390744 -8.000000000000018
  endloop
endfacet
facet normal 6.924379372052563e-16 -3.227457582839443e-17 -1.0
  outer loop
    vertex -482.49395537149263 408.413043390744 -8.000000000000018
    vertex -488.36464924927014 429.92701456867593 -8.000000000000055
    vertex -465.26766093648774 439.4941003778029 -7.999999999999985
  endloop
endfacet
facet normal 6.924379372052563e-16 -3.227457582839443e-17 -1.0
  outer loop
    vertex -482.49395537149263 408.413043390744 -8.000000000000018
    vertex -465.26766093648774 439.4941003778029 -7.999999999999985
    vertex -471.18024687250784 419.7267518897288 -8.000000000000014
  endloop
endfacet
facet normal 6.924379372052563e-16 -3.227457582839443e-17 -1.0
  outer loop
    vertex -482.49395537149263 408.413043390744 -8.000000000000018
    vertex -471.18024687250784 419.7267518897288 -8.000000000000014
    vertex -473.2823665101778 399.20145452942927 -8.000000000000014
  endloop
endfacet
facet normal 6.924379372052563e-16 -3.227457582839443e-17 -1.0
  outer loop
    vertex -471.18024687250784 419.7267518897288 -8.000000000000014
    vertex -465.26766093648774 439.4941003778029 -7.999999999999985
    vertex -459.1447260186463 424.7120278576224 -7.999999999999985
  endloop
endfacet
facet normal 6.924379372052563e-16 -3.227457582839443e-17 -1.0
  outer loop
    vertex -461.968658011193 410.51516302841407 -8.000000000000014
    vertex -473.2823665101778 399.20145452942927 -8.000000000000014
    vertex -471.18024687250784 419.7267518897288 -8.000000000000014
  endloop
endfacet
facet normal -0.6527139518645028 0.6527139518645126 0.38461538461537675
  outer loop
    vertex -494.42816444775417 420.3472524670058 7.999999999999987
    vertex -477.8106661579031 426.3571711751242 26.001659490126052
    vertex -483.1144559487694 431.66096096599045 7.99999999999997
  endloop
endfacet
facet normal -0.6527139518645028 0.6527139518645126 0.38461538461537675
  outer loop
    vertex -477.8106661579031 426.3571711751242 26.001659490126052
    vertex -494.42816444775417 420.3472524670058 7.999999999999987
    vertex -489.12437465688794 415.04346267613954 26.001659490126006
  endloop
endfacet
facet normal -0.3826834323650915 -0.923879532511286 0.0
  outer loop
    vertex -487.4792313393861 396.3775225368824 -8.000000000000012
    vertex -489.3269904044086 397.1428894016126 -6.000000000000013
    vertex -502.2613038595667 402.50045745472386 -8.000000000000012
  endloop
endfacet
facet normal -0.3826834323650915 -0.923879532511286 0.0
  outer loop
    vertex -489.3269904044086 397.1428894016126 -6.000000000000013
    vertex -487.4792313393861 396.3775225368824 -8.000000000000012
    vertex -487.4792313393861 396.3775225368824 7.999999999999987
  endloop
endfacet
facet normal -0.3826834323650915 -0.923879532511286 0.0
  outer loop
    vertex -489.3269904044086 397.1428894016126 -6.000000000000013
    vertex -487.4792313393861 396.3775225368824 7.999999999999987
    vertex -489.3269904044086 397.1428894016126 5.999999999999988
  endloop
endfacet
facet normal -0.3826834323650915 -0.923879532511286 0.0
  outer loop
    vertex -489.3269904044086 397.1428894016126 5.999999999999988
    vertex -487.4792313393861 396.3775225368824 7.999999999999987
    vertex -500.41354479454407 401.73509058999366 5.999999999999988
  endloop
endfacet
facet normal -0.3826834323650915 -0.923879532511286 0.0
  outer loop
    vertex -502.2613038595667 402.50045745472386 -8.000000000000012
    vertex -500.41354479454407 401.73509058999366 -6.0000000000000115
    vertex -502.2613038595667 402.50045745472386 7.999999999999987
  endloop
endfacet
facet normal -0.3826834323650915 -0.923879532511286 0.0
  outer loop
    vertex -500.41354479454407 401.73509058999366 -6.0000000000000115
    vertex -502.2613038595667 402.50045745472386 -8.000000000000012
    vertex -489.3269904044086 397.1428894016126 -6.000000000000013
  endloop
endfacet
facet normal -0.3826834323650915 -0.923879532511286 0.0
  outer loop
    vertex -502.2613038595667 402.50045745472386 7.999999999999987
    vertex -500.41354479454407 401.73509058999366 -6.0000000000000115
    vertex -500.41354479454407 401.73509058999366 5.999999999999988
  endloop
endfacet
facet normal -0.3826834323650915 -0.923879532511286 0.0
  outer loop
    vertex -502.2613038595667 402.50045745472386 7.999999999999987
    vertex -500.41354479454407 401.73509058999366 5.999999999999988
    vertex -487.4792313393861 396.3775225368824 7.999999999999987
  endloop
endfacet
facet normal 0.9238795325112852 0.3826834323650939 2.61726727827284e-15
  outer loop
    vertex -459.1447260186463 424.7120278576224 -7.999999999999985
    vertex -459.91009288337654 426.55978692264495 -5.999999999999986
    vertex -459.1447260186463 424.7120278576224 8.000000000000014
  endloop
endfacet
facet normal 0.9238795325112852 0.3826834323650939 2.61726727827284e-15
  outer loop
    vertex -459.91009288337654 426.55978692264495 -5.999999999999986
    vertex -459.1447260186463 424.7120278576224 -7.999999999999985
    vertex -465.26766093648774 439.4941003778029 -7.999999999999985
  endloop
endfacet
facet normal 0.9238795325112852 0.3826834323650939 2.61726727827284e-15
  outer loop
    vertex -459.91009288337654 426.55978692264495 -5.999999999999986
    vertex -465.26766093648774 439.4941003778029 -7.999999999999985
    vertex -464.5022940717576 437.6463413127804 -5.999999999999986
  endloop
endfacet
facet normal 0.9238795325112852 0.3826834323650939 2.61726727827284e-15
  outer loop
    vertex -464.5022940717576 437.6463413127804 -5.999999999999986
    vertex -465.26766093648774 439.4941003778029 -7.999999999999985
    vertex -464.5022940717576 437.6463413127804 6.000000000000016
  endloop
endfacet
facet normal 0.9238795325112852 0.3826834323650939 2.61726727827284e-15
  outer loop
    vertex -459.1447260186463 424.7120278576224 8.000000000000014
    vertex -459.91009288337654 426.55978692264495 6.000000000000016
    vertex -465.2676609364878 439.4941003778029 8.000000000000014
  endloop
endfacet
facet normal 0.9238795325112852 0.3826834323650939 2.61726727827284e-15
  outer loop
    vertex -459.91009288337654 426.55978692264495 6.000000000000016
    vertex -459.1447260186463 424.7120278576224 8.000000000000014
    vertex -459.91009288337654 426.55978692264495 -5.999999999999986
  endloop
endfacet
facet normal 0.9238795325112852 0.3826834323650939 2.61726727827284e-15
  outer loop
    vertex -465.2676609364878 439.4941003778029 8.000000000000014
    vertex -459.91009288337654 426.55978692264495 6.000000000000016
    vertex -464.5022940717576 437.6463413127804 6.000000000000016
  endloop
endfacet
facet normal 0.9238795325112852 0.3826834323650939 2.61726727827284e-15
  outer loop
    vertex -465.2676609364878 439.4941003778029 8.000000000000014
    vertex -464.5022940717576 437.6463413127804 6.000000000000016
    vertex -465.26766093648774 439.4941003778029 -7.999999999999985
  endloop
endfacet
facet normal 0.9238795325112884 -0.3826834323650858 -4.740506946330516e-15
  outer loop
    vertex -482.49395537149263 408.413043390744 -8.000000000000018
    vertex -487.4792313393861 396.3775225368824 7.999999999999987
    vertex -487.4792313393861 396.3775225368824 -8.000000000000012
  endloop
endfacet
facet normal 0.9238795325112884 -0.3826834323650858 -4.740506946330516e-15
  outer loop
    vertex -487.4792313393861 396.3775225368824 7.999999999999987
    vertex -482.49395537149263 408.413043390744 -8.000000000000018
    vertex -482.4939553714924 408.413043390744 7.999999999999979
  endloop
endfacet
facet normal 0.7071067811865476 -0.7071067811865476 0.0
  outer loop
    vertex -473.2823665101778 399.20145452942927 -8.000000000000014
    vertex -471.8681529478048 400.6156680918024 -6.000000000000013
    vertex -473.2823665101778 399.20145452942927 7.999999999999987
  endloop
endfacet
facet normal 0.7071067811865476 -0.7071067811865476 0.0
  outer loop
    vertex -471.8681529478048 400.6156680918024 -6.000000000000013
    vertex -473.2823665101778 399.20145452942927 -8.000000000000014
    vertex -461.968658011193 410.51516302841407 -8.000000000000014
  endloop
endfacet
facet normal 0.7071067811865476 -0.7071067811865476 0.0
  outer loop
    vertex -471.8681529478048 400.6156680918024 -6.000000000000013
    vertex -461.968658011193 410.51516302841407 -8.000000000000014
    vertex -463.3828715735662 409.10094946604096 -6.000000000000013
  endloop
endfacet
facet normal 0.7071067811865476 -0.7071067811865476 0.0
  outer loop
    vertex -463.3828715735662 409.10094946604096 -6.000000000000013
    vertex -461.968658011193 410.51516302841407 -8.000000000000014
    vertex -463.3828715735662 409.10094946604096 5.999999999999988
  endloop
endfacet
facet normal 0.7071067811865476 -0.7071067811865476 0.0
  outer loop
    vertex -473.2823665101778 399.20145452942927 7.999999999999987
    vertex -471.8681529478048 400.6156680918024 5.999999999999988
    vertex -461.968658011193 410.51516302841407 7.999999999999987
  endloop
endfacet
facet normal 0.7071067811865476 -0.7071067811865476 0.0
  outer loop
    vertex -471.8681529478048 400.6156680918024 5.999999999999988
    vertex -473.2823665101778 399.20145452942927 7.999999999999987
    vertex -471.8681529478048 400.6156680918024 -6.000000000000013
  endloop
endfacet
facet normal 0.7071067811865476 -0.7071067811865476 0.0
  outer loop
    vertex -461.968658011193 410.51516302841407 7.999999999999987
    vertex -471.8681529478048 400.6156680918024 5.999999999999988
    vertex -463.3828715735662 409.10094946604096 5.999999999999988
  endloop
endfacet
facet normal 0.7071067811865476 -0.7071067811865476 0.0
  outer loop
    vertex -461.968658011193 410.51516302841407 7.999999999999987
    vertex -463.3828715735662 409.10094946604096 5.999999999999988
    vertex -461.968658011193 410.51516302841407 -8.000000000000014
  endloop
endfacet
endsolid stromek
