solid stromek
facet normal -0.6527139518645028 0.6527139518645126 0.38461538461537675
  outer loop
    vertex -442.7509076406884 395.04121215477136 16.00000000000006
    vertex -426.13340935083727 401.05113086288975 34.00165949012612
    vertex -431.4371991417036 406.354920653756 16.000000000000043
  endloop
endfacet
facet normal -0.6527139518645028 0.6527139518645126 0.38461538461537675
  outer loop
    vertex -426.13340935083727 401.05113086288975 34.00165949012612
    vertex -442.7509076406884 395.04121215477136 16.00000000000006
    vertex -437.4471178498222 389.7374223639051 34.00165949012608
  endloop
endfacet
facet normal 1.3326626729949873e-15 -5.860167462228926e-16 -1.0
  outer loop
    vertex -439.16920217835127 399.52603859054165 14.000000000000062
    vertex -440.39388503673325 395.51261667556236 14.00000000000005
    vertex -448.73628798747825 376.42905027775925 14.000000000000062
  endloop
endfacet
facet normal 1.3326626729949873e-15 -5.860167462228926e-16 -1.0
  outer loop
    vertex -440.39388503673325 395.51261667556236 14.00000000000005
    vertex -439.16920217835127 399.52603859054165 14.000000000000062
    vertex -431.90860366249467 403.9978980498009 14.000000000000048
  endloop
endfacet
facet normal 1.3326626729949873e-15 -5.860167462228926e-16 -1.0
  outer loop
    vertex -431.90860366249467 403.9978980498009 14.000000000000048
    vertex -439.16920217835127 399.52603859054165 14.000000000000062
    vertex -435.92202557747424 402.77321519141896 14.00000000000002
  endloop
endfacet
facet normal 1.3326626729949873e-15 -5.860167462228926e-16 -1.0
  outer loop
    vertex -431.90860366249467 403.9978980498009 14.000000000000048
    vertex -435.92202557747424 402.77321519141896 14.00000000000002
    vertex -412.82503726469184 412.340301000546 14.00000000000009
  endloop
endfacet
facet normal 1.3326626729949873e-15 -5.860167462228926e-16 -1.0
  outer loop
    vertex -431.90860366249467 403.9978980498009 14.000000000000048
    vertex -412.82503726469184 412.340301000546 14.00000000000009
    vertex -423.0337237949023 395.12301818220857 14.000000000000057
  endloop
endfacet
facet normal 1.3326626729949873e-15 -5.860167462228926e-16 -1.0
  outer loop
    vertex -423.0337237949023 395.12301818220857 14.000000000000057
    vertex -412.82503726469184 412.340301000546 14.00000000000009
    vertex -408.2328360763106 401.25374661041053 14.00000000000009
  endloop
endfacet
facet normal 1.3326626729949873e-15 -5.860167462228926e-16 -1.0
  outer loop
    vertex -440.39388503673325 395.51261667556236 14.00000000000005
    vertex -437.6497335973428 371.8368490893782 14.000000000000062
    vertex -448.73628798747825 376.42905027775925 14.000000000000062
  endloop
endfacet
facet normal 1.3326626729949873e-15 -5.860167462228926e-16 -1.0
  outer loop
    vertex -437.6497335973428 371.8368490893782 14.000000000000062
    vertex -440.39388503673325 395.51261667556236 14.00000000000005
    vertex -431.5190051691409 386.63773680797004 14.00000000000005
  endloop
endfacet
facet normal -0.3826834323650915 -0.923879532511286 0.0
  outer loop
    vertex -435.8019745323203 371.071482224648 6.341631985447772e-14
    vertex -437.6497335973428 371.8368490893782 2.0000000000000626
    vertex -450.58404705250086 377.19441714248944 6.341631985447772e-14
  endloop
endfacet
facet normal -0.3826834323650915 -0.923879532511286 0.0
  outer loop
    vertex -437.6497335973428 371.8368490893782 2.0000000000000626
    vertex -435.8019745323203 371.071482224648 6.341631985447772e-14
    vertex -435.8019745323203 371.071482224648 16.00000000000006
  endloop
endfacet
facet normal -0.3826834323650915 -0.923879532511286 0.0
  outer loop
    vertex -437.6497335973428 371.8368490893782 2.0000000000000626
    vertex -435.8019745323203 371.071482224648 16.00000000000006
    vertex -437.6497335973428 371.8368490893782 14.000000000000062
  endloop
endfacet
facet normal -0.3826834323650915 -0.923879532511286 0.0
  outer loop
    vertex -437.6497335973428 371.8368490893782 14.000000000000062
    vertex -435.8019745323203 371.071482224648 16.00000000000006
    vertex -448.73628798747825 376.42905027775925 14.000000000000062
  endloop
endfacet
facet normal -0.3826834323650915 -0.923879532511286 0.0
  outer loop
    vertex -450.58404705250086 377.19441714248944 6.341631985447772e-14
    vertex -448.73628798747825 376.42905027775925 2.000000000000064
    vertex -450.58404705250086 377.19441714248944 16.00000000000006
  endloop
endfacet
facet normal -0.3826834323650915 -0.923879532511286 0.0
  outer loop
    vertex -448.73628798747825 376.42905027775925 2.000000000000064
    vertex -450.58404705250086 377.19441714248944 6.341631985447772e-14
    vertex -437.6497335973428 371.8368490893782 2.0000000000000626
  endloop
endfacet
facet normal -0.3826834323650915 -0.923879532511286 0.0
  outer loop
    vertex -450.58404705250086 377.19441714248944 16.00000000000006
    vertex -448.73628798747825 376.42905027775925 2.000000000000064
    vertex -448.73628798747825 376.42905027775925 14.000000000000062
  endloop
endfacet
facet normal -0.3826834323650915 -0.923879532511286 0.0
  outer loop
    vertex -450.58404705250086 377.19441714248944 16.00000000000006
    vertex -448.73628798747825 376.42905027775925 14.000000000000062
    vertex -435.8019745323203 371.071482224648 16.00000000000006
  endloop
endfacet
facet normal 0.923879532511286 -0.38268343236509145 0.0
  outer loop
    vertex -439.16920217835127 399.52603859054165 2.000000000000064
    vertex -448.73628798747825 376.42905027775925 14.000000000000062
    vertex -448.73628798747825 376.42905027775925 2.000000000000064
  endloop
endfacet
facet normal 0.923879532511286 -0.38268343236509145 0.0
  outer loop
    vertex -448.73628798747825 376.42905027775925 14.000000000000062
    vertex -439.16920217835127 399.52603859054165 2.000000000000064
    vertex -439.16920217835127 399.52603859054165 14.000000000000062
  endloop
endfacet
facet normal 0.6527139518645023 -0.652713951864512 -0.3846153846153787
  outer loop
    vertex -426.24219500948135 398.3314893967877 33.23242872089535
    vertex -440.39388503673325 395.51261667556236 14.00000000000005
    vertex -431.90860366249467 403.9978980498009 14.000000000000048
  endloop
endfacet
facet normal 0.6527139518645023 -0.652713951864512 -0.3846153846153787
  outer loop
    vertex -440.39388503673325 395.51261667556236 14.00000000000005
    vertex -426.24219500948135 398.3314893967877 33.23242872089535
    vertex -434.72747638372005 389.8462080225492 33.232428720895335
  endloop
endfacet
facet normal 0.9238795325112852 0.3826834323650939 2.61726727827284e-15
  outer loop
    vertex -407.46746921158046 399.405987545388 9.020600143868274e-14
    vertex -408.2328360763106 401.25374661041053 2.0000000000000893
    vertex -407.46746921158046 399.405987545388 16.00000000000009
  endloop
endfacet
facet normal 0.9238795325112852 0.3826834323650939 2.61726727827284e-15
  outer loop
    vertex -408.2328360763106 401.25374661041053 2.0000000000000893
    vertex -407.46746921158046 399.405987545388 9.020600143868274e-14
    vertex -413.5904041294219 414.1880600655685 9.020600143868274e-14
  endloop
endfacet
facet normal 0.9238795325112852 0.3826834323650939 2.61726727827284e-15
  outer loop
    vertex -408.2328360763106 401.25374661041053 2.0000000000000893
    vertex -413.5904041294219 414.1880600655685 9.020600143868274e-14
    vertex -412.8250372646917 412.340301000546 2.0000000000000893
  endloop
endfacet
facet normal 0.9238795325112852 0.3826834323650939 2.61726727827284e-15
  outer loop
    vertex -412.8250372646917 412.340301000546 2.0000000000000893
    vertex -413.5904041294219 414.1880600655685 9.020600143868274e-14
    vertex -412.82503726469184 412.340301000546 14.00000000000009
  endloop
endfacet
facet normal 0.9238795325112852 0.3826834323650939 2.61726727827284e-15
  outer loop
    vertex -407.46746921158046 399.405987545388 16.00000000000009
    vertex -408.2328360763106 401.25374661041053 14.00000000000009
    vertex -413.590404129422 414.1880600655685 16.00000000000009
  endloop
endfacet
facet normal 0.9238795325112852 0.3826834323650939 2.61726727827284e-15
  outer loop
    vertex -408.2328360763106 401.25374661041053 14.00000000000009
    vertex -407.46746921158046 399.405987545388 16.00000000000009
    vertex -408.2328360763106 401.25374661041053 2.0000000000000893
  endloop
endfacet
facet normal 0.9238795325112852 0.3826834323650939 2.61726727827284e-15
  outer loop
    vertex -413.590404129422 414.1880600655685 16.00000000000009
    vertex -408.2328360763106 401.25374661041053 14.00000000000009
    vertex -412.82503726469184 412.340301000546 14.00000000000009
  endloop
endfacet
facet normal 0.9238795325112852 0.3826834323650939 2.61726727827284e-15
  outer loop
    vertex -413.590404129422 414.1880600655685 16.00000000000009
    vertex -412.82503726469184 412.340301000546 14.00000000000009
    vertex -413.5904041294219 414.1880600655685 9.020600143868274e-14
  endloop
endfacet
facet normal 0.9238795325112895 -0.3826834323650829 -5.4874075003393374e-15
  outer loop
    vertex -427.502990065442 391.10700307850976 4.649652095919033e-14
    vertex -435.8019745323203 371.071482224648 16.00000000000006
    vertex -435.8019745323203 371.071482224648 6.341631985447772e-14
  endloop
endfacet
facet normal 0.9238795325112895 -0.3826834323650829 -5.4874075003393374e-15
  outer loop
    vertex -435.8019745323203 371.071482224648 16.00000000000006
    vertex -427.502990065442 391.10700307850976 4.649652095919033e-14
    vertex -430.81669856442664 383.10700307850954 14.906048796429362
  endloop
endfacet
facet normal 0.9238795325112895 -0.3826834323650829 -5.4874075003393374e-15
  outer loop
    vertex -430.81669856442664 383.10700307850954 14.906048796429362
    vertex -427.502990065442 391.10700307850976 4.649652095919033e-14
    vertex -427.49154355971785 391.1346373878707 6.925676785127345
  endloop
endfacet
facet normal 0.9238795325112895 -0.3826834323650829 -5.4874075003393374e-15
  outer loop
    vertex -430.81669856442664 383.1070030785096 16.000000000000053
    vertex -435.8019745323203 371.071482224648 16.00000000000006
    vertex -430.81669856442664 383.10700307850954 14.906048796429362
  endloop
endfacet
facet normal -0.38265391475953964 0.923891758344787 -1.9539112698366512e-05
  outer loop
    vertex -429.04319970863344 392.6338117559867 6.948245712702676
    vertex -408.2328360763106 401.25374661041053 2.0000000000000893
    vertex -429.0337237949024 392.63773680797016 2.0000000000000457
  endloop
endfacet
facet normal -0.38265391475953964 0.923891758344787 -1.9539112698366512e-05
  outer loop
    vertex -408.2328360763106 401.25374661041053 2.0000000000000893
    vertex -429.04319970863344 392.6338117559867 6.948245712702676
    vertex -408.2328360763106 401.25374661041053 14.00000000000009
  endloop
endfacet
facet normal -0.38265391475953964 0.923891758344787 -1.9539112698366512e-05
  outer loop
    vertex -408.2328360763106 401.25374661041053 14.00000000000009
    vertex -429.04319970863344 392.6338117559867 6.948245712702676
    vertex -423.0337237949023 395.1230181822085 12.922341135634616
  endloop
endfacet
facet normal -0.38265391475953964 0.923891758344787 -1.9539112698366512e-05
  outer loop
    vertex -408.2328360763106 401.25374661041053 14.00000000000009
    vertex -423.0337237949023 395.1230181822085 12.922341135634616
    vertex -423.0337237949023 395.12301818220857 14.000000000000057
  endloop
endfacet
facet normal -0.923928328245062 0.3825656047619655 4.816011643724161e-05
  outer loop
    vertex -431.5190051691409 386.63773680797004 14.00000000000005
    vertex -437.6497335973428 371.8368490893782 2.0000000000000626
    vertex -437.6497335973428 371.8368490893782 14.000000000000062
  endloop
endfacet
facet normal -0.923928328245062 0.3825656047619655 4.816011643724161e-05
  outer loop
    vertex -437.6497335973428 371.8368490893782 2.0000000000000626
    vertex -431.5190051691409 386.63773680797004 14.00000000000005
    vertex -431.5190051691409 386.63773680797004 12.922341135634605
  endloop
endfacet
facet normal -0.923928328245062 0.3825656047619655 4.816011643724161e-05
  outer loop
    vertex -437.6497335973428 371.8368490893782 2.0000000000000626
    vertex -431.5190051691409 386.63773680797004 12.922341135634605
    vertex -429.0337237949024 392.63773680797016 2.0000000000000457
  endloop
endfacet
facet normal -0.923928328245062 0.3825656047619655 4.816011643724161e-05
  outer loop
    vertex -429.0337237949024 392.63773680797016 2.0000000000000457
    vertex -431.5190051691409 386.63773680797004 12.922341135634605
    vertex -429.04319970863344 392.6338117559867 6.948245712702676
  endloop
endfacet
facet normal 0.652713951864504 -0.6527139518645093 -0.38461538461538064
  outer loop
    vertex -419.5029900654419 394.42071157749433 14.906048796429
    vertex -430.81669856442664 383.10700307850954 14.906048796429362
    vertex -427.49154355971785 391.1346373878707 6.925676785127345
  endloop
endfacet
facet normal 0.652713951864504 -0.6527139518645093 -0.38461538461538064
  outer loop
    vertex -430.81669856442664 383.10700307850954 14.906048796429362
    vertex -419.5029900654419 394.42071157749433 14.906048796429
    vertex -415.6899861210053 390.6077076330577 27.84781333627991
  endloop
endfacet
facet normal 0.652713951864504 -0.6527139518645093 -0.38461538461538064
  outer loop
    vertex -430.81669856442664 383.10700307850954 14.906048796429362
    vertex -415.6899861210053 390.6077076330577 27.84781333627991
    vertex -427.00369461999 379.2939991340729 27.8478133362801
  endloop
endfacet
facet normal -0.7071067811865478 -0.7071067811865474 7.363786319857932e-16
  outer loop
    vertex -427.00369461999 379.2939991340729 27.8478133362801
    vertex -430.81669856442664 383.1070030785096 16.000000000000053
    vertex -430.81669856442664 383.10700307850954 14.906048796429362
  endloop
endfacet
facet normal -0.7071067811865478 -0.7071067811865474 7.363786319857932e-16
  outer loop
    vertex -430.81669856442664 383.1070030785096 16.000000000000053
    vertex -427.00369461999 379.2939991340729 27.8478133362801
    vertex -437.4471178498222 389.7374223639051 34.00165949012608
  endloop
endfacet
facet normal -0.7071067811865478 -0.7071067811865474 7.363786319857932e-16
  outer loop
    vertex -430.81669856442664 383.1070030785096 16.000000000000053
    vertex -437.4471178498222 389.7374223639051 34.00165949012608
    vertex -442.7509076406884 395.04121215477136 16.00000000000006
  endloop
endfacet
facet normal -0.9238795325112905 0.3826834323650808 0.0
  outer loop
    vertex -441.01696124337377 400.29140545527184 16.00000000000006
    vertex -450.58404705250086 377.19441714248944 6.341631985447772e-14
    vertex -450.58404705250086 377.19441714248944 16.00000000000006
  endloop
endfacet
facet normal -0.9238795325112905 0.3826834323650808 0.0
  outer loop
    vertex -450.58404705250086 377.19441714248944 6.341631985447772e-14
    vertex -441.01696124337377 400.29140545527184 16.00000000000006
    vertex -441.01696124337377 400.29140545527184 6.341631985447772e-14
  endloop
endfacet
facet normal -0.7071067811865472 -0.7071067811865479 4.010540912468971e-15
  outer loop
    vertex -418.4096275871073 390.49892197441363 28.617044105510697
    vertex -423.0337237949023 395.12301818220857 14.000000000000057
    vertex -423.0337237949023 395.1230181822085 12.922341135634616
  endloop
endfacet
facet normal -0.7071067811865472 -0.7071067811865479 4.010540912468971e-15
  outer loop
    vertex -423.0337237949023 395.12301818220857 14.000000000000057
    vertex -426.24219500948135 398.3314893967877 33.23242872089535
    vertex -431.90860366249467 403.9978980498009 14.000000000000048
  endloop
endfacet
facet normal -0.7071067811865472 -0.7071067811865479 4.010540912468971e-15
  outer loop
    vertex -426.24219500948135 398.3314893967877 33.23242872089535
    vertex -423.0337237949023 395.12301818220857 14.000000000000057
    vertex -418.4096275871073 390.49892197441363 28.617044105510697
  endloop
endfacet
facet normal -0.707106781186566 0.7071067811865291 -2.0093522733120777e-15
  outer loop
    vertex -436.6873924422044 404.6209742564415 16.000000000000018
    vertex -441.01696124337377 400.29140545527184 6.341631985447772e-14
    vertex -441.01696124337377 400.29140545527184 16.00000000000006
  endloop
endfacet
facet normal -0.707106781186566 0.7071067811865291 -2.0093522733120777e-15
  outer loop
    vertex -441.01696124337377 400.29140545527184 6.341631985447772e-14
    vertex -436.6873924422044 404.6209742564415 16.000000000000018
    vertex -436.6873924422043 404.6209742564415 2.1116822616259253e-14
  endloop
endfacet
facet normal 0.3822744295202786 -0.9240488400791345 -4.1028671575791954e-05
  outer loop
    vertex -407.46746921158046 399.405987545388 9.020600143868274e-14
    vertex -427.49154355971785 391.1346373878707 6.925676785127345
    vertex -427.502990065442 391.10700307850976 4.649652095919033e-14
  endloop
endfacet
facet normal 0.3822744295202786 -0.9240488400791345 -4.1028671575791954e-05
  outer loop
    vertex -427.49154355971785 391.1346373878707 6.925676785127345
    vertex -407.46746921158046 399.405987545388 9.020600143868274e-14
    vertex -407.46746921158046 399.405987545388 16.00000000000009
  endloop
endfacet
facet normal 0.3822744295202786 -0.9240488400791345 -4.1028671575791954e-05
  outer loop
    vertex -427.49154355971785 391.1346373878707 6.925676785127345
    vertex -407.46746921158046 399.405987545388 16.00000000000009
    vertex -419.5029900654419 394.42071157749433 14.906048796429
  endloop
endfacet
facet normal 0.3822744295202786 -0.9240488400791345 -4.1028671575791954e-05
  outer loop
    vertex -419.5029900654419 394.42071157749433 14.906048796429
    vertex -407.46746921158046 399.405987545388 16.00000000000009
    vertex -419.5029900654419 394.4207115774944 16.000000000000064
  endloop
endfacet
facet normal -0.6527139518645018 0.6527139518645068 0.3846153846153888
  outer loop
    vertex -431.5190051691409 386.63773680797004 12.922341135634605
    vertex -423.0337237949023 395.1230181822085 12.922341135634616
    vertex -429.04319970863344 392.6338117559867 6.948245712702676
  endloop
endfacet
facet normal -0.6527139518645018 0.6527139518645068 0.3846153846153888
  outer loop
    vertex -423.0337237949023 395.1230181822085 12.922341135634616
    vertex -431.5190051691409 386.63773680797004 12.922341135634605
    vertex -426.8949089613459 382.01364060017505 28.61704410551083
  endloop
endfacet
facet normal -0.6527139518645018 0.6527139518645068 0.3846153846153888
  outer loop
    vertex -423.0337237949023 395.1230181822085 12.922341135634616
    vertex -426.8949089613459 382.01364060017505 28.61704410551083
    vertex -418.4096275871073 390.49892197441363 28.617044105510697
  endloop
endfacet
facet normal 0.7071067811865475 0.7071067811865477 -1.7252892981941804e-15
  outer loop
    vertex -434.72747638372005 389.8462080225492 33.232428720895335
    vertex -431.5190051691409 386.63773680797004 14.00000000000005
    vertex -440.39388503673325 395.51261667556236 14.00000000000005
  endloop
endfacet
facet normal 0.7071067811865475 0.7071067811865477 -1.7252892981941804e-15
  outer loop
    vertex -431.5190051691409 386.63773680797004 14.00000000000005
    vertex -434.72747638372005 389.8462080225492 33.232428720895335
    vertex -426.8949089613459 382.01364060017505 28.61704410551083
  endloop
endfacet
facet normal 0.7071067811865475 0.7071067811865477 -1.7252892981941804e-15
  outer loop
    vertex -426.8949089613459 382.01364060017505 28.61704410551083
    vertex -431.5190051691409 386.63773680797004 12.922341135634605
    vertex -431.5190051691409 386.63773680797004 14.00000000000005
  endloop
endfacet
facet normal 0.7071067811865671 -0.7071067811865279 5.319803078471338e-15
  outer loop
    vertex -435.9220255774741 402.77321519141896 2.000000000000021
    vertex -439.16920217835127 399.52603859054165 14.000000000000062
    vertex -439.16920217835127 399.52603859054165 2.000000000000064
  endloop
endfacet
facet normal 0.7071067811865671 -0.7071067811865279 5.319803078471338e-15
  outer loop
    vertex -439.16920217835127 399.52603859054165 14.000000000000062
    vertex -435.9220255774741 402.77321519141896 2.000000000000021
    vertex -435.92202557747424 402.77321519141896 14.00000000000002
  endloop
endfacet
facet normal -1.0118905904767055e-15 3.6460238677281294e-16 1.0
  outer loop
    vertex -442.7509076406884 395.04121215477136 16.00000000000006
    vertex -441.01696124337377 400.29140545527184 16.00000000000006
    vertex -450.58404705250086 377.19441714248944 16.00000000000006
  endloop
endfacet
facet normal -1.0118905904767055e-15 3.6460238677281294e-16 1.0
  outer loop
    vertex -441.01696124337377 400.29140545527184 16.00000000000006
    vertex -442.7509076406884 395.04121215477136 16.00000000000006
    vertex -431.4371991417036 406.354920653756 16.000000000000043
  endloop
endfacet
facet normal -1.0118905904767055e-15 3.6460238677281294e-16 1.0
  outer loop
    vertex -441.01696124337377 400.29140545527184 16.00000000000006
    vertex -431.4371991417036 406.354920653756 16.000000000000043
    vertex -436.6873924422044 404.6209742564415 16.000000000000018
  endloop
endfacet
facet normal -1.0118905904767055e-15 3.6460238677281294e-16 1.0
  outer loop
    vertex -436.6873924422044 404.6209742564415 16.000000000000018
    vertex -431.4371991417036 406.354920653756 16.000000000000043
    vertex -413.590404129422 414.1880600655685 16.00000000000009
  endloop
endfacet
facet normal -1.0118905904767055e-15 3.6460238677281294e-16 1.0
  outer loop
    vertex -413.590404129422 414.1880600655685 16.00000000000009
    vertex -431.4371991417036 406.354920653756 16.000000000000043
    vertex -419.5029900654419 394.4207115774944 16.000000000000064
  endloop
endfacet
facet normal -1.0118905904767055e-15 3.6460238677281294e-16 1.0
  outer loop
    vertex -413.590404129422 414.1880600655685 16.00000000000009
    vertex -419.5029900654419 394.4207115774944 16.000000000000064
    vertex -407.46746921158046 399.405987545388 16.00000000000009
  endloop
endfacet
facet normal -1.0118905904767055e-15 3.6460238677281294e-16 1.0
  outer loop
    vertex -435.8019745323203 371.071482224648 16.00000000000006
    vertex -442.7509076406884 395.04121215477136 16.00000000000006
    vertex -450.58404705250086 377.19441714248944 16.00000000000006
  endloop
endfacet
facet normal -1.0118905904767055e-15 3.6460238677281294e-16 1.0
  outer loop
    vertex -442.7509076406884 395.04121215477136 16.00000000000006
    vertex -435.8019745323203 371.071482224648 16.00000000000006
    vertex -430.81669856442664 383.1070030785096 16.000000000000053
  endloop
endfacet
facet normal -0.38268343236509383 0.9238795325112851 -2.1583089053918997e-15
  outer loop
    vertex -436.6873924422044 404.6209742564415 16.000000000000018
    vertex -413.5904041294219 414.1880600655685 9.020600143868274e-14
    vertex -436.6873924422043 404.6209742564415 2.1116822616259253e-14
  endloop
endfacet
facet normal -0.38268343236509383 0.9238795325112851 -2.1583089053918997e-15
  outer loop
    vertex -413.5904041294219 414.1880600655685 9.020600143868274e-14
    vertex -436.6873924422044 404.6209742564415 16.000000000000018
    vertex -413.590404129422 414.1880600655685 16.00000000000009
  endloop
endfacet
facet normal 0.2719641466102099 -0.27196414661020596 0.9230769230769247
  outer loop
    vertex -427.00369461999 379.2939991340729 27.8478133362801
    vertex -434.72747638372005 389.8462080225492 33.232428720895335
    vertex -437.4471178498222 389.7374223639051 34.00165949012608
  endloop
endfacet
facet normal 0.2719641466102099 -0.27196414661020596 0.9230769230769247
  outer loop
    vertex -434.72747638372005 389.8462080225492 33.232428720895335
    vertex -427.00369461999 379.2939991340729 27.8478133362801
    vertex -426.8949089613459 382.01364060017505 28.61704410551083
  endloop
endfacet
facet normal 0.2719641466102099 -0.27196414661020596 0.9230769230769247
  outer loop
    vertex -426.8949089613459 382.01364060017505 28.61704410551083
    vertex -427.00369461999 379.2939991340729 27.8478133362801
    vertex -415.6899861210053 390.6077076330577 27.84781333627991
  endloop
endfacet
facet normal 0.2719641466102099 -0.27196414661020596 0.9230769230769247
  outer loop
    vertex -426.8949089613459 382.01364060017505 28.61704410551083
    vertex -415.6899861210053 390.6077076330577 27.84781333627991
    vertex -418.4096275871073 390.49892197441363 28.617044105510697
  endloop
endfacet
facet normal 0.2719641466102099 -0.27196414661020596 0.9230769230769247
  outer loop
    vertex -434.72747638372005 389.8462080225492 33.232428720895335
    vertex -426.13340935083727 401.05113086288975 34.00165949012612
    vertex -437.4471178498222 389.7374223639051 34.00165949012608
  endloop
endfacet
facet normal 0.2719641466102099 -0.27196414661020596 0.9230769230769247
  outer loop
    vertex -426.13340935083727 401.05113086288975 34.00165949012612
    vertex -434.72747638372005 389.8462080225492 33.232428720895335
    vertex -426.24219500948135 398.3314893967877 33.23242872089535
  endloop
endfacet
facet normal 0.2719641466102099 -0.27196414661020596 0.9230769230769247
  outer loop
    vertex -426.13340935083727 401.05113086288975 34.00165949012612
    vertex -426.24219500948135 398.3314893967877 33.23242872089535
    vertex -418.4096275871073 390.49892197441363 28.617044105510697
  endloop
endfacet
facet normal 0.2719641466102099 -0.27196414661020596 0.9230769230769247
  outer loop
    vertex -426.13340935083727 401.05113086288975 34.00165949012612
    vertex -418.4096275871073 390.49892197441363 28.617044105510697
    vertex -415.6899861210053 390.6077076330577 27.84781333627991
  endloop
endfacet
facet normal 1.1597507674919822e-15 -4.44272875816733e-16 -1.0
  outer loop
    vertex -441.01696124337377 400.29140545527184 6.341631985447772e-14
    vertex -435.8019745323203 371.071482224648 6.341631985447772e-14
    vertex -450.58404705250086 377.19441714248944 6.341631985447772e-14
  endloop
endfacet
facet normal 1.1597507674919822e-15 -4.44272875816733e-16 -1.0
  outer loop
    vertex -435.8019745323203 371.071482224648 6.341631985447772e-14
    vertex -441.01696124337377 400.29140545527184 6.341631985447772e-14
    vertex -436.6873924422043 404.6209742564415 2.1116822616259253e-14
  endloop
endfacet
facet normal 1.1597507674919822e-15 -4.44272875816733e-16 -1.0
  outer loop
    vertex -435.8019745323203 371.071482224648 6.341631985447772e-14
    vertex -436.6873924422043 404.6209742564415 2.1116822616259253e-14
    vertex -427.502990065442 391.10700307850976 4.649652095919033e-14
  endloop
endfacet
facet normal 1.1597507674919822e-15 -4.44272875816733e-16 -1.0
  outer loop
    vertex -427.502990065442 391.10700307850976 4.649652095919033e-14
    vertex -436.6873924422043 404.6209742564415 2.1116822616259253e-14
    vertex -413.5904041294219 414.1880600655685 9.020600143868274e-14
  endloop
endfacet
facet normal 1.1597507674919822e-15 -4.44272875816733e-16 -1.0
  outer loop
    vertex -427.502990065442 391.10700307850976 4.649652095919033e-14
    vertex -413.5904041294219 414.1880600655685 9.020600143868274e-14
    vertex -407.46746921158046 399.405987545388 9.020600143868274e-14
  endloop
endfacet
facet normal -1.4131705951344587e-15 6.928605634631709e-16 1.0
  outer loop
    vertex -437.6497335973428 371.8368490893782 2.0000000000000626
    vertex -439.16920217835127 399.52603859054165 2.000000000000064
    vertex -448.73628798747825 376.42905027775925 2.000000000000064
  endloop
endfacet
facet normal -1.4131705951344587e-15 6.928605634631709e-16 1.0
  outer loop
    vertex -439.16920217835127 399.52603859054165 2.000000000000064
    vertex -437.6497335973428 371.8368490893782 2.0000000000000626
    vertex -435.9220255774741 402.77321519141896 2.000000000000021
  endloop
endfacet
facet normal -1.4131705951344587e-15 6.928605634631709e-16 1.0
  outer loop
    vertex -435.9220255774741 402.77321519141896 2.000000000000021
    vertex -437.6497335973428 371.8368490893782 2.0000000000000626
    vertex -429.0337237949024 392.63773680797016 2.0000000000000457
  endloop
endfacet
facet normal -1.4131705951344587e-15 6.928605634631709e-16 1.0
  outer loop
    vertex -435.9220255774741 402.77321519141896 2.000000000000021
    vertex -429.0337237949024 392.63773680797016 2.0000000000000457
    vertex -412.8250372646917 412.340301000546 2.0000000000000893
  endloop
endfacet
facet normal -1.4131705951344587e-15 6.928605634631709e-16 1.0
  outer loop
    vertex -412.8250372646917 412.340301000546 2.0000000000000893
    vertex -429.0337237949024 392.63773680797016 2.0000000000000457
    vertex -408.2328360763106 401.25374661041053 2.0000000000000893
  endloop
endfacet
facet normal 0.7071067811865467 0.7071067811865483 -3.2379001612316655e-15
  outer loop
    vertex -426.13340935083727 401.05113086288975 34.00165949012612
    vertex -419.5029900654419 394.4207115774944 16.000000000000064
    vertex -431.4371991417036 406.354920653756 16.000000000000043
  endloop
endfacet
facet normal 0.7071067811865467 0.7071067811865483 -3.2379001612316655e-15
  outer loop
    vertex -419.5029900654419 394.4207115774944 16.000000000000064
    vertex -426.13340935083727 401.05113086288975 34.00165949012612
    vertex -415.6899861210053 390.6077076330577 27.84781333627991
  endloop
endfacet
facet normal 0.7071067811865467 0.7071067811865483 -3.2379001612316655e-15
  outer loop
    vertex -415.6899861210053 390.6077076330577 27.84781333627991
    vertex -419.5029900654419 394.42071157749433 14.906048796429
    vertex -419.5029900654419 394.4207115774944 16.000000000000064
  endloop
endfacet
facet normal 0.38268343236509383 -0.9238795325112851 2.8777452071891994e-15
  outer loop
    vertex -412.8250372646917 412.340301000546 2.0000000000000893
    vertex -435.92202557747424 402.77321519141896 14.00000000000002
    vertex -435.9220255774741 402.77321519141896 2.000000000000021
  endloop
endfacet
facet normal 0.38268343236509383 -0.9238795325112851 2.8777452071891994e-15
  outer loop
    vertex -435.92202557747424 402.77321519141896 14.00000000000002
    vertex -412.8250372646917 412.340301000546 2.0000000000000893
    vertex -412.82503726469184 412.340301000546 14.00000000000009
  endloop
endfacet
endsolid stromek
